<svg width="40" height="40" viewBox="0 0 40 40" fill="none" xmlns="http://www.w3.org/2000/svg">
<circle cx="20" cy="20" r="20" fill="#E02828"/>
<path d="M25.0549 13.2036L25.7302 12.3637C26.6557 11.2156 26.4681 9.53822 25.31 8.61876L25.2675 8.58397C24.1119 7.66452 22.4235 7.8509 21.498 9.00146L20.8252 9.8389L25.0549 13.2036Z" fill="white"/>
<path d="M20.9449 20.2633C20.9674 20.4671 21.07 20.6609 21.2426 20.8001C21.5902 21.0759 22.098 21.0213 22.3756 20.6758L27.0155 14.9106C27.2982 14.5602 27.2356 14.0458 26.8729 13.7725C26.5228 13.5091 26.02 13.5836 25.7449 13.9241L25.2921 14.4857L24.5167 13.8694L24.5192 13.8669L20.2921 10.4997L9.47656 23.9312L13.7062 27.2959L23.5137 15.1194L24.2891 15.7356L21.1175 19.6744C20.9775 19.8458 20.9224 20.0596 20.9449 20.2633Z" fill="white"/>
<path d="M13.0036 27.9173L9.01902 24.7464C8.95398 24.9675 8.92147 25.1614 8.92147 25.1614L8.0085 29.5052C7.94347 29.8183 8.26363 30.0742 8.55628 29.94L12.6234 28.1011C12.6209 28.1011 12.8009 28.0266 13.0036 27.9173Z" fill="white"/>
<path d="M30.277 28.6952C30.2419 28.6952 30.2094 28.6977 30.1744 28.7027L24.0288 29.4929C23.7136 29.5327 23.4935 29.1897 23.6635 28.9214C23.7561 28.7797 23.8461 28.6356 23.9362 28.4915C24.1738 28.1088 23.8561 27.5993 23.4159 27.5993C23.3859 27.5993 23.3559 27.6018 23.3234 27.6068L15.2693 28.8095L14.3063 28.9537L11.6799 29.3463C11.3823 29.3911 11.1822 29.642 11.2072 29.9427C11.2172 30.0769 11.2722 30.2037 11.3598 30.2981C11.4623 30.4099 11.6049 30.472 11.76 30.472C11.79 30.472 11.82 30.4695 11.8525 30.4646L21.4524 29.0307C21.7801 28.981 22.0052 29.3488 21.8126 29.6172C21.7501 29.7017 21.6875 29.7887 21.625 29.8731C21.4524 30.1067 21.4924 30.4969 21.6925 30.6982C21.7951 30.8025 21.9252 30.8572 22.0627 30.8572C22.0778 30.8572 22.0952 30.8572 22.1103 30.8547H22.1128H22.1153L30.402 29.806H30.4045H30.407C30.5496 29.7837 30.6747 29.7017 30.7572 29.5749C30.8473 29.4358 30.8798 29.2643 30.8398 29.1102C30.7747 28.8592 30.5546 28.6952 30.277 28.6952Z" fill="white"/>
</svg>
