<svg width="15" height="15" viewBox="0 0 15 15" fill="none" xmlns="http://www.w3.org/2000/svg">
<path d="M10.3125 13.5938V9.375H4.6875V13.5938C4.6875 13.875 4.5 14.0625 4.21875 14.0625H10.7812C10.5 14.0625 10.3125 13.875 10.3125 13.5938Z" fill="black"/>
<path d="M12.6562 6.14062V3.65625C12.6562 2.4375 11.625 1.40625 10.4062 1.40625H4.59375C3.375 1.40625 2.34375 2.4375 2.34375 3.65625V6.14062C1.54688 6.32812 0.9375 7.07812 0.9375 7.96875V12.6562C0.9375 13.4531 1.54688 14.0625 2.34375 14.0625H4.21875C3.9375 14.0625 3.75 13.875 3.75 13.5938V7.96875C3.75 7.45312 3.32812 7.03125 2.8125 7.03125C2.53125 7.03125 2.34375 6.84375 2.34375 6.5625C2.34375 6.28125 2.53125 6.09375 2.8125 6.09375C3.84375 6.09375 4.6875 6.9375 4.6875 7.96875V8.4375H10.3125V7.96875C10.3125 6.9375 11.1562 6.09375 12.1875 6.09375C12.4688 6.09375 12.6562 6.28125 12.6562 6.5625C12.6562 6.84375 12.4688 7.03125 12.1875 7.03125C11.6719 7.03125 11.25 7.45312 11.25 7.96875V13.5938C11.25 13.875 11.0625 14.0625 10.7812 14.0625H12.6562C13.4531 14.0625 14.0625 13.4531 14.0625 12.6562V7.96875C14.0625 7.07812 13.4531 6.375 12.6562 6.14062Z" fill="black"/>
</svg>
