<svg width="40" height="40" viewBox="0 0 40 40" fill="none" xmlns="http://www.w3.org/2000/svg">
<circle cx="20" cy="20" r="20" fill="black" fill-opacity="0.3"/>
<g clip-path="url(#clip0_327_1928)">
<path d="M31.634 12.8537L30.8853 12.105C30.65 11.8695 30.3364 11.74 30.0015 11.74C29.6666 11.74 29.3528 11.8695 29.1175 12.105L18.5971 22.6252L12.0241 16.052C11.7888 15.817 11.4749 15.6872 11.1401 15.6872C10.8054 15.6872 10.4917 15.817 10.2563 16.052L9.50736 16.8006C9.27192 17.0364 9.14258 17.3504 9.14258 17.6849C9.14258 18.0196 9.27192 18.3335 9.50736 18.5689L16.9287 25.9899C16.9385 26.0038 16.9489 26.0168 16.961 26.0287L17.7099 26.7652C17.9452 26.9997 18.259 27.1169 18.5965 27.1169H18.6004C18.9355 27.1169 19.2493 26.9997 19.4842 26.7652L20.2333 26.0222C20.2454 26.0103 20.2556 26.0005 20.2617 25.9904L31.6338 14.6195C32.1216 14.1328 32.1216 13.3409 31.634 12.8537Z" fill="white"/>
</g>
<defs>
<clipPath id="clip0_327_1928">
<rect width="22.8571" height="22.8571" fill="white" transform="translate(9.14258 8)"/>
</clipPath>
</defs>
</svg>
