<svg width="70" height="70" viewBox="0 0 70 70" fill="none" xmlns="http://www.w3.org/2000/svg">
<path d="M68.88 14.8644L66.5871 12.5715C65.8666 11.8504 64.9059 11.4537 63.8804 11.4537C62.8549 11.4537 61.8937 11.8504 61.1732 12.5715L28.9544 44.7897L8.82455 24.6593C8.10406 23.9393 7.14285 23.5421 6.11732 23.5421C5.09236 23.5421 4.13171 23.9393 3.41065 24.6593L1.11715 26.9516C0.396098 27.6738 0 28.6356 0 29.66C0 30.685 0.396098 31.6462 1.11715 32.3672L23.845 55.0939C23.8751 55.1366 23.907 55.1764 23.944 55.2128L26.2375 57.4682C26.958 58.1864 27.9192 58.5455 28.9527 58.5455H28.9646C29.9907 58.5455 30.952 58.1864 31.6713 57.4682L33.9654 55.1929C34.0024 55.1565 34.0337 55.1263 34.0524 55.0956L68.8794 20.272C70.3733 18.7815 70.3733 16.3566 68.88 14.8644Z" fill="#31AA52"/>
</svg>
