<svg width="40" height="40" viewBox="0 0 40 40" fill="none" xmlns="http://www.w3.org/2000/svg">
<circle cx="20" cy="20" r="20" fill="#E02828"/>
<g clip-path="url(#clip0_327_1927)">
<path d="M27.2079 22.1592C26.7399 21.672 26.1755 21.4115 25.5773 21.4115C24.9839 21.4115 24.4147 21.6671 23.9275 22.1544L22.403 23.674C22.2776 23.6064 22.1522 23.5437 22.0316 23.481C21.8579 23.3942 21.6939 23.3122 21.554 23.2253C20.126 22.3184 18.8283 21.1365 17.5837 19.6072C16.9807 18.845 16.5754 18.2034 16.2812 17.5521C16.6767 17.1903 17.0434 16.814 17.4004 16.4522C17.5354 16.3171 17.6705 16.1772 17.8056 16.0422C18.8187 15.0291 18.8187 13.7169 17.8056 12.7038L16.4886 11.3869C16.3391 11.2373 16.1847 11.0829 16.04 10.9286C15.7505 10.6295 15.4466 10.3207 15.133 10.0313C14.6651 9.56814 14.1055 9.32211 13.5169 9.32211C12.9284 9.32211 12.3591 9.56814 11.8767 10.0313C11.8719 10.0361 11.8719 10.0361 11.8671 10.0409L10.2268 11.6956C9.60936 12.3131 9.25719 13.0657 9.18001 13.9388C9.06423 15.3475 9.4791 16.6597 9.7975 17.5184C10.579 19.6265 11.7465 21.5803 13.488 23.674C15.601 26.197 18.1433 28.1894 21.0474 29.5932C22.157 30.1191 23.638 30.7414 25.2927 30.8475C25.394 30.8523 25.5001 30.8571 25.5966 30.8571C26.711 30.8571 27.6469 30.4567 28.3802 29.6608C28.385 29.6511 28.3946 29.6463 28.3994 29.6366C28.6503 29.3327 28.9398 29.0577 29.2437 28.7635C29.4511 28.5657 29.6634 28.3582 29.8708 28.1411C30.3484 27.6443 30.5993 27.0654 30.5993 26.472C30.5993 25.8738 30.3436 25.2997 29.8563 24.8173L27.2079 22.1592ZM28.9349 27.239C28.9301 27.239 28.9301 27.2439 28.9349 27.239C28.7468 27.4416 28.5538 27.625 28.3464 27.8276C28.0328 28.1267 27.7144 28.4402 27.4153 28.7924C26.9281 29.3134 26.354 29.5595 25.6014 29.5595C25.5291 29.5595 25.4519 29.5595 25.3795 29.5546C23.9468 29.463 22.6153 28.9034 21.6167 28.4258C18.8862 27.104 16.4886 25.2274 14.4962 22.849C12.8512 20.8663 11.7513 19.0331 11.0228 17.0649C10.5742 15.8637 10.4102 14.9278 10.4825 14.045C10.5308 13.4805 10.7479 13.0126 11.1483 12.6122L12.7933 10.9672C13.0297 10.7452 13.2805 10.6246 13.5266 10.6246C13.8305 10.6246 14.0765 10.808 14.2309 10.9623C14.2357 10.9672 14.2405 10.972 14.2454 10.9768C14.5396 11.2518 14.8194 11.5364 15.1137 11.8403C15.2633 11.9947 15.4176 12.1491 15.572 12.3083L16.889 13.6253C17.4004 14.1366 17.4004 14.6094 16.889 15.1207C16.7491 15.2607 16.614 15.4006 16.4741 15.5356C16.0689 15.9505 15.683 16.3364 15.2633 16.7127C15.2536 16.7224 15.244 16.7272 15.2391 16.7368C14.8243 17.1517 14.9015 17.5569 14.9883 17.8319C14.9931 17.8464 14.9979 17.8609 15.0028 17.8753C15.3453 18.7051 15.8277 19.4866 16.561 20.4177L16.5658 20.4225C17.8973 22.0627 19.3011 23.3411 20.8496 24.3204C21.0474 24.4458 21.25 24.5472 21.443 24.6436C21.6167 24.7305 21.7807 24.8125 21.9206 24.8993C21.9399 24.909 21.9592 24.9234 21.9785 24.9331C22.1425 25.0151 22.2969 25.0537 22.4561 25.0537C22.8565 25.0537 23.1073 24.8028 23.1894 24.7208L24.8392 23.071C25.0032 22.9069 25.2637 22.7091 25.5677 22.7091C25.8668 22.7091 26.1128 22.8973 26.2623 23.0613C26.2672 23.0661 26.2672 23.0661 26.272 23.071L28.9301 25.7291C29.427 26.2211 29.427 26.7277 28.9349 27.239Z" fill="white"/>
<path d="M21.497 13.4371C22.7609 13.6493 23.9091 14.2475 24.8257 15.1641C25.7423 16.0807 26.3356 17.2289 26.5527 18.4928C26.6058 18.8112 26.8808 19.0331 27.1943 19.0331C27.2329 19.0331 27.2667 19.0283 27.3053 19.0235C27.6623 18.9656 27.8987 18.6279 27.8408 18.2709C27.5803 16.7416 26.8566 15.3475 25.7519 14.2427C24.6472 13.138 23.253 12.4144 21.7237 12.1539C21.3668 12.096 21.0339 12.3324 20.9712 12.6845C20.9085 13.0367 21.14 13.3792 21.497 13.4371Z" fill="white"/>
<path d="M31.9738 18.0827C31.5445 15.5645 30.3577 13.273 28.5342 11.4495C26.7107 9.62596 24.4192 8.43922 21.901 8.00987C21.5488 7.94715 21.216 8.18836 21.1532 8.54053C21.0954 8.89751 21.3317 9.23038 21.6887 9.29309C23.9368 9.6742 25.9871 10.7403 27.6176 12.3661C29.2482 13.9966 30.3095 16.0469 30.6906 18.295C30.7437 18.6134 31.0186 18.8353 31.3322 18.8353C31.3708 18.8353 31.4046 18.8305 31.4432 18.8256C31.7953 18.7726 32.0365 18.4349 31.9738 18.0827Z" fill="white"/>
</g>
<defs>
<clipPath id="clip0_327_1927">
<rect width="22.8571" height="22.8571" fill="white" transform="translate(9.14258 8)"/>
</clipPath>
</defs>
</svg>
