<svg width="40" height="40" viewBox="0 0 40 40" fill="none" xmlns="http://www.w3.org/2000/svg">
<circle cx="20" cy="20" r="20" fill="black" fill-opacity="0.3"/>
<g clip-path="url(#clip0_327_1893)">
<path d="M27.2069 22.1592C26.739 21.672 26.1745 21.4115 25.5763 21.4115C24.983 21.4115 24.4137 21.6671 23.9265 22.1544L22.402 23.674C22.2766 23.6064 22.1512 23.5437 22.0306 23.481C21.8569 23.3942 21.6929 23.3122 21.553 23.2253C20.125 22.3184 18.8273 21.1365 17.5827 19.6072C16.9797 18.845 16.5745 18.2034 16.2802 17.5521C16.6758 17.1903 17.0424 16.814 17.3994 16.4522C17.5345 16.3171 17.6695 16.1772 17.8046 16.0422C18.8177 15.0291 18.8177 13.7169 17.8046 12.7038L16.4876 11.3869C16.3381 11.2373 16.1837 11.0829 16.039 10.9286C15.7495 10.6295 15.4456 10.3207 15.132 10.0313C14.6641 9.56814 14.1045 9.32211 13.5159 9.32211C12.9274 9.32211 12.3582 9.56814 11.8757 10.0313C11.8709 10.0361 11.8709 10.0361 11.8661 10.0409L10.2259 11.6956C9.60838 12.3131 9.25622 13.0657 9.17903 13.9388C9.06325 15.3475 9.47813 16.6597 9.79652 17.5184C10.578 19.6265 11.7455 21.5803 13.487 23.674C15.6 26.197 18.1423 28.1894 21.0465 29.5932C22.156 30.1191 23.637 30.7414 25.2917 30.8475C25.393 30.8523 25.4992 30.8571 25.5956 30.8571C26.71 30.8571 27.6459 30.4567 28.3792 29.6608C28.384 29.6511 28.3936 29.6463 28.3985 29.6366C28.6493 29.3327 28.9388 29.0577 29.2427 28.7635C29.4501 28.5657 29.6624 28.3582 29.8698 28.1411C30.3474 27.6443 30.5983 27.0654 30.5983 26.472C30.5983 25.8738 30.3426 25.2997 29.8554 24.8173L27.2069 22.1592ZM28.934 27.239C28.9291 27.239 28.9291 27.2439 28.934 27.239C28.7458 27.4416 28.5528 27.625 28.3454 27.8276C28.0318 28.1267 27.7134 28.4402 27.4143 28.7924C26.9271 29.3134 26.353 29.5595 25.6005 29.5595C25.5281 29.5595 25.4509 29.5595 25.3785 29.5546C23.9458 29.463 22.6143 28.9034 21.6157 28.4258C18.8852 27.104 16.4876 25.2274 14.4953 22.849C12.8502 20.8663 11.7503 19.0331 11.0219 17.0649C10.5732 15.8637 10.4092 14.9278 10.4816 14.045C10.5298 13.4805 10.7469 13.0126 11.1473 12.6122L12.7923 10.9672C13.0287 10.7452 13.2796 10.6246 13.5256 10.6246C13.8295 10.6246 14.0756 10.808 14.2299 10.9623C14.2347 10.9672 14.2396 10.972 14.2444 10.9768C14.5387 11.2518 14.8185 11.5364 15.1127 11.8403C15.2623 11.9947 15.4167 12.1491 15.571 12.3083L16.888 13.6253C17.3994 14.1366 17.3994 14.6094 16.888 15.1207C16.7481 15.2607 16.6131 15.4006 16.4732 15.5356C16.0679 15.9505 15.682 16.3364 15.2623 16.7127C15.2526 16.7224 15.243 16.7272 15.2382 16.7368C14.8233 17.1517 14.9005 17.5569 14.9873 17.8319C14.9921 17.8464 14.997 17.8609 15.0018 17.8753C15.3443 18.7051 15.8267 19.4866 16.56 20.4177L16.5648 20.4225C17.8963 22.0627 19.3001 23.3411 20.8487 24.3204C21.0465 24.4458 21.2491 24.5472 21.442 24.6436C21.6157 24.7305 21.7797 24.8125 21.9196 24.8993C21.9389 24.909 21.9582 24.9234 21.9775 24.9331C22.1415 25.0151 22.2959 25.0537 22.4551 25.0537C22.8555 25.0537 23.1064 24.8028 23.1884 24.7208L24.8382 23.071C25.0023 22.9069 25.2628 22.7091 25.5667 22.7091C25.8658 22.7091 26.1118 22.8973 26.2614 23.0613C26.2662 23.0661 26.2662 23.0661 26.271 23.071L28.9291 25.7291C29.426 26.2211 29.426 26.7277 28.934 27.239Z" fill="white"/>
<path d="M21.4951 13.4371C22.759 13.6493 23.9071 14.2475 24.8237 15.1641C25.7403 16.0807 26.3337 17.2289 26.5508 18.4928C26.6038 18.8112 26.8788 19.0331 27.1924 19.0331C27.231 19.0331 27.2647 19.0283 27.3033 19.0235C27.6603 18.9656 27.8967 18.6279 27.8388 18.2709C27.5783 16.7416 26.8547 15.3475 25.75 14.2427C24.6452 13.138 23.251 12.4144 21.7218 12.1539C21.3648 12.096 21.0319 12.3324 20.9692 12.6845C20.9065 13.0367 21.1381 13.3792 21.4951 13.4371Z" fill="white"/>
<path d="M31.9729 18.0827C31.5435 15.5645 30.3568 13.273 28.5332 11.4495C26.7097 9.62596 24.4182 8.43922 21.9 8.00987C21.5478 7.94715 21.215 8.18836 21.1523 8.54053C21.0944 8.89751 21.3308 9.23038 21.6878 9.29309C23.9358 9.6742 25.9861 10.7403 27.6166 12.3661C29.2472 13.9966 30.3085 16.0469 30.6896 18.295C30.7427 18.6134 31.0177 18.8353 31.3312 18.8353C31.3698 18.8353 31.4036 18.8305 31.4422 18.8256C31.7944 18.7726 32.0356 18.4349 31.9729 18.0827Z" fill="white"/>
</g>
<defs>
<clipPath id="clip0_327_1893">
<rect width="22.8571" height="22.8571" fill="white" transform="translate(9.14258 8)"/>
</clipPath>
</defs>
</svg>
