<svg width="25" height="26" viewBox="0 0 25 26" fill="none" xmlns="http://www.w3.org/2000/svg">
<path d="M12.5 0.500549C5.59716 0.500549 0 6.09661 0 13C0 19.9034 5.59661 25.4994 12.5 25.4994C19.4039 25.4994 25 19.9034 25 13C25 6.09661 19.4039 0.500549 12.5 0.500549ZM12.5 4.23803C14.7841 4.23803 16.635 6.08948 16.635 8.37248C16.635 10.656 14.7841 12.5069 12.5 12.5069C10.217 12.5069 8.36609 10.656 8.36609 8.37248C8.36609 6.08948 10.217 4.23803 12.5 4.23803ZM12.4973 22.2314C10.2192 22.2314 8.13274 21.4018 6.52343 20.0286C6.1314 19.6942 5.90519 19.2039 5.90519 18.6894C5.90519 16.374 7.77914 14.5209 10.0951 14.5209H14.906C17.2225 14.5209 19.0893 16.374 19.0893 18.6894C19.0893 19.2044 18.8642 19.6936 18.4716 20.028C16.8629 21.4018 14.7759 22.2314 12.4973 22.2314Z" fill="black"/>
</svg>
