<svg width="234" height="132" viewBox="0 0 234 132" fill="none" xmlns="http://www.w3.org/2000/svg">
<rect width="234" height="132" fill="#F8F8F8"/>
<path d="M194.084 115.865C194.084 115.791 194.063 115.725 194.021 115.666C193.979 115.606 193.9 115.552 193.785 115.502C193.673 115.45 193.51 115.402 193.297 115.36C193.104 115.317 192.925 115.264 192.759 115.2C192.595 115.133 192.452 115.054 192.33 114.961C192.21 114.869 192.116 114.76 192.048 114.634C191.98 114.506 191.947 114.36 191.947 114.196C191.947 114.035 191.98 113.883 192.048 113.741C192.119 113.599 192.218 113.473 192.347 113.364C192.479 113.253 192.638 113.166 192.825 113.104C193.015 113.04 193.229 113.008 193.465 113.008C193.796 113.008 194.079 113.062 194.316 113.168C194.555 113.275 194.738 113.422 194.864 113.609C194.993 113.794 195.058 114.006 195.058 114.243H194.045C194.045 114.143 194.024 114.054 193.982 113.976C193.942 113.895 193.879 113.832 193.792 113.787C193.708 113.74 193.598 113.716 193.462 113.716C193.349 113.716 193.252 113.736 193.17 113.777C193.088 113.815 193.025 113.867 192.98 113.933C192.938 113.997 192.917 114.068 192.917 114.147C192.917 114.206 192.929 114.259 192.952 114.307C192.978 114.352 193.019 114.393 193.075 114.431C193.131 114.469 193.204 114.505 193.293 114.538C193.384 114.569 193.497 114.597 193.63 114.623C193.905 114.68 194.15 114.755 194.365 114.847C194.581 114.938 194.752 115.061 194.879 115.217C195.005 115.372 195.068 115.574 195.068 115.826C195.068 115.997 195.031 116.153 194.956 116.295C194.881 116.438 194.773 116.562 194.632 116.669C194.492 116.773 194.323 116.855 194.126 116.914C193.932 116.971 193.713 117 193.469 117C193.115 117 192.815 116.936 192.569 116.808C192.325 116.68 192.14 116.517 192.013 116.32C191.889 116.121 191.827 115.917 191.827 115.708H192.787C192.791 115.848 192.827 115.961 192.892 116.046C192.96 116.132 193.046 116.193 193.149 116.231C193.254 116.269 193.368 116.288 193.49 116.288C193.621 116.288 193.73 116.27 193.817 116.235C193.904 116.197 193.969 116.147 194.014 116.085C194.061 116.021 194.084 115.948 194.084 115.865Z" fill="black"/>
<path d="M202.061 115.047V114.965C202.061 114.687 202.101 114.43 202.18 114.193C202.26 113.953 202.375 113.746 202.525 113.57C202.675 113.392 202.857 113.255 203.07 113.158C203.283 113.058 203.522 113.008 203.787 113.008C204.054 113.008 204.295 113.058 204.508 113.158C204.723 113.255 204.906 113.392 205.056 113.57C205.209 113.746 205.325 113.953 205.404 114.193C205.484 114.43 205.524 114.687 205.524 114.965V115.047C205.524 115.324 205.484 115.581 205.404 115.819C205.325 116.056 205.209 116.263 205.056 116.441C204.906 116.617 204.725 116.754 204.511 116.854C204.3 116.951 204.061 117 203.794 117C203.527 117 203.287 116.951 203.073 116.854C202.86 116.754 202.677 116.617 202.525 116.441C202.375 116.263 202.26 116.056 202.18 115.819C202.101 115.581 202.061 115.324 202.061 115.047ZM202.711 114.965V115.047C202.711 115.239 202.734 115.42 202.778 115.591C202.823 115.759 202.889 115.909 202.979 116.039C203.07 116.17 203.184 116.273 203.32 116.349C203.455 116.422 203.614 116.459 203.794 116.459C203.972 116.459 204.128 116.422 204.262 116.349C204.398 116.273 204.51 116.17 204.599 116.039C204.688 115.909 204.755 115.759 204.8 115.591C204.847 115.42 204.87 115.239 204.87 115.047V114.965C204.87 114.775 204.847 114.596 204.8 114.428C204.755 114.257 204.687 114.106 204.596 113.976C204.507 113.843 204.394 113.739 204.258 113.663C204.125 113.587 203.968 113.549 203.787 113.549C203.609 113.549 203.452 113.587 203.316 113.663C203.182 113.739 203.07 113.843 202.979 113.976C202.889 114.106 202.823 114.257 202.778 114.428C202.734 114.596 202.711 114.775 202.711 114.965Z" fill="black"/>
<path fill-rule="evenodd" clip-rule="evenodd" d="M185.864 116.929H186.884V113.805H187.643V113.079H186.884V112.738C186.884 112.622 186.906 112.523 186.951 112.443C186.995 112.362 187.06 112.301 187.144 112.261C187.231 112.218 187.335 112.197 187.457 112.197C187.523 112.197 187.58 112.199 187.629 112.204C187.679 112.209 187.725 112.217 187.77 112.229L187.78 111.457C187.698 111.438 187.614 111.423 187.527 111.411C187.441 111.397 187.35 111.39 187.257 111.39C186.971 111.39 186.723 111.442 186.515 111.546C186.309 111.648 186.148 111.8 186.033 112.001C185.921 112.201 185.864 112.446 185.864 112.738V113.079H185.298V113.805H185.864V116.929ZM185.864 113.805H186.884V113.079H185.864V113.805Z" fill="black"/>
<path d="M185.864 113.805H186.884V113.079H185.864V113.805Z" fill="black"/>
<path fill-rule="evenodd" clip-rule="evenodd" d="M190.268 116.567C190.232 116.609 190.193 116.65 190.15 116.69C190.052 116.78 189.933 116.855 189.795 116.914C189.657 116.971 189.493 117 189.303 117C189.061 117 188.842 116.951 188.645 116.854C188.451 116.754 188.296 116.618 188.181 116.445C188.069 116.269 188.013 116.07 188.013 115.847C188.013 115.646 188.05 115.466 188.125 115.31C188.2 115.153 188.31 115.022 188.455 114.915C188.603 114.806 188.787 114.724 189.007 114.67C189.228 114.613 189.483 114.584 189.774 114.584H190.227V115.164H189.802C189.668 115.164 189.552 115.179 189.454 115.21C189.355 115.241 189.275 115.285 189.211 115.342C189.148 115.396 189.101 115.461 189.071 115.534C189.043 115.608 189.029 115.688 189.029 115.776C189.029 115.864 189.048 115.943 189.088 116.014C189.128 116.083 189.186 116.138 189.261 116.178C189.336 116.216 189.423 116.235 189.524 116.235C189.677 116.235 189.809 116.204 189.922 116.142C190.034 116.081 190.121 116.005 190.182 115.915C190.199 115.89 190.214 115.865 190.227 115.841V115.164H190.368L190.361 114.584H190.227V114.346C190.227 114.223 190.207 114.117 190.168 114.029C190.128 113.939 190.066 113.869 189.981 113.819C189.899 113.77 189.793 113.745 189.661 113.745C189.549 113.745 189.452 113.765 189.37 113.805C189.288 113.843 189.224 113.899 189.18 113.972C189.135 114.043 189.113 114.128 189.113 114.225H188.1C188.1 114.061 188.138 113.906 188.213 113.759C188.288 113.612 188.397 113.483 188.54 113.371C188.683 113.257 188.853 113.168 189.05 113.104C189.249 113.04 189.472 113.008 189.718 113.008C190.013 113.008 190.275 113.058 190.505 113.158C190.735 113.257 190.915 113.407 191.047 113.606C191.18 113.805 191.247 114.054 191.247 114.353V116C191.247 116.211 191.26 116.384 191.286 116.519C191.311 116.652 191.349 116.768 191.398 116.868V116.929H190.375C190.329 116.831 190.293 116.71 190.268 116.567Z" fill="black"/>
<path d="M190.368 115.164L190.361 114.584H190.227V115.164H190.368Z" fill="black"/>
<path fill-rule="evenodd" clip-rule="evenodd" d="M197.589 113.805V113.079H196.935V112.13H195.923V113.079H195.374V113.805H195.923V115.872C195.923 116.142 195.967 116.361 196.056 116.527C196.145 116.693 196.272 116.814 196.436 116.889C196.602 116.963 196.797 117 197.02 117C197.141 117 197.253 116.991 197.354 116.975C197.454 116.958 197.548 116.936 197.635 116.907L197.631 116.153C197.596 116.16 197.553 116.167 197.501 116.174C197.452 116.179 197.396 116.182 197.332 116.182C197.243 116.182 197.17 116.171 197.111 116.149C197.052 116.126 197.008 116.084 196.977 116.025C196.949 115.966 196.935 115.88 196.935 115.769V113.805H197.589ZM196.935 113.805V113.079H195.923V113.805H196.935Z" fill="black"/>
<path d="M196.935 113.805V113.079H195.923V113.805H196.935Z" fill="black"/>
<path fill-rule="evenodd" clip-rule="evenodd" d="M198.918 113.54V111.464H198.268V116.929H198.918V114.182C198.959 114.099 199.007 114.022 199.062 113.951C199.158 113.83 199.272 113.735 199.403 113.666C199.537 113.598 199.684 113.563 199.846 113.563C200.01 113.563 200.148 113.592 200.261 113.649C200.373 113.703 200.459 113.792 200.518 113.915C200.576 114.036 200.605 114.198 200.605 114.399V116.929H201.259V114.406C201.259 114.153 201.231 113.938 201.175 113.762C201.119 113.585 201.037 113.44 200.929 113.328C200.823 113.217 200.696 113.136 200.546 113.086C200.396 113.034 200.227 113.008 200.039 113.008C199.81 113.008 199.6 113.054 199.41 113.147C199.223 113.237 199.061 113.365 198.925 113.531C198.923 113.534 198.92 113.537 198.918 113.54ZM198.918 113.54V114.182C198.889 114.24 198.863 114.302 198.841 114.367C198.789 114.521 198.763 114.685 198.763 114.858L198.493 114.847C198.495 114.584 198.534 114.341 198.609 114.118C198.674 113.921 198.763 113.747 198.875 113.595C198.889 113.576 198.903 113.558 198.918 113.54Z" fill="black"/>
<path d="M198.493 114.847L198.763 114.858C198.763 114.685 198.789 114.521 198.841 114.367C198.863 114.302 198.889 114.24 198.918 114.182V113.54C198.903 113.558 198.889 113.576 198.875 113.595C198.763 113.747 198.674 113.921 198.609 114.118C198.534 114.341 198.495 114.584 198.493 114.847Z" fill="black"/>
<path fill-rule="evenodd" clip-rule="evenodd" d="M206.986 116.929V114.108C207.011 114.053 207.039 114 207.071 113.951C207.148 113.83 207.251 113.735 207.38 113.666C207.509 113.598 207.67 113.563 207.862 113.563C208.026 113.563 208.169 113.592 208.291 113.649C208.413 113.703 208.506 113.791 208.572 113.912C208.64 114.033 208.674 114.194 208.674 114.396V116.929H209.324V114.364C209.333 114.286 209.349 114.212 209.373 114.14C209.413 114.028 209.471 113.93 209.546 113.844C209.621 113.756 209.713 113.688 209.823 113.638C209.934 113.588 210.06 113.563 210.203 113.563C210.37 113.563 210.513 113.588 210.632 113.638C210.754 113.685 210.848 113.77 210.913 113.89C210.981 114.009 211.015 114.176 211.015 114.392V116.929H211.669V114.399C211.669 114.157 211.641 113.949 211.585 113.773C211.529 113.598 211.445 113.454 211.335 113.343C211.227 113.229 211.094 113.145 210.934 113.09C210.777 113.036 210.597 113.008 210.393 113.008C210.152 113.008 209.937 113.053 209.75 113.143C209.562 113.231 209.404 113.351 209.275 113.503C209.243 113.542 209.212 113.582 209.183 113.624C209.128 113.507 209.059 113.407 208.976 113.325C208.866 113.216 208.736 113.136 208.586 113.086C208.436 113.034 208.272 113.008 208.094 113.008C207.841 113.008 207.618 113.054 207.426 113.147C207.246 113.231 207.095 113.348 206.97 113.498L206.951 113.079H206.332V116.929H206.986ZM206.986 113.844V114.108C206.951 114.188 206.923 114.275 206.902 114.367C206.869 114.521 206.853 114.685 206.853 114.858L206.55 114.847C206.553 114.584 206.587 114.341 206.652 114.118C206.718 113.893 206.815 113.697 206.944 113.531C206.953 113.52 206.962 113.509 206.97 113.498L206.986 113.844Z" fill="black"/>
<path d="M206.55 114.847L206.853 114.858C206.853 114.685 206.869 114.521 206.902 114.367C206.923 114.275 206.951 114.188 206.986 114.108V113.844L206.97 113.498C206.962 113.509 206.953 113.52 206.944 113.531C206.815 113.697 206.718 113.893 206.652 114.118C206.587 114.341 206.553 114.584 206.55 114.847Z" fill="black"/>
<path fill-rule="evenodd" clip-rule="evenodd" d="M213.511 116.865C213.727 116.955 213.967 117 214.232 117C214.483 117 214.7 116.964 214.882 116.893C215.068 116.822 215.223 116.729 215.35 116.616C215.477 116.502 215.581 116.382 215.663 116.256L215.269 115.94C215.15 116.098 215.01 116.225 214.851 116.32C214.691 116.415 214.497 116.463 214.267 116.463C214.089 116.463 213.93 116.428 213.789 116.359C213.651 116.291 213.532 116.196 213.434 116.075C213.338 115.954 213.264 115.814 213.213 115.655C213.168 115.508 213.143 115.353 213.139 115.189H215.712V114.894C215.712 114.623 215.682 114.374 215.621 114.147C215.56 113.917 215.466 113.717 215.339 113.549C215.213 113.378 215.05 113.245 214.851 113.151C214.654 113.056 214.42 113.008 214.148 113.008C213.934 113.008 213.728 113.052 213.529 113.14C213.33 113.228 213.152 113.357 212.995 113.528C212.838 113.698 212.713 113.907 212.622 114.154C212.53 114.398 212.485 114.677 212.485 114.99V115.139C212.485 115.41 212.526 115.659 212.608 115.886C212.69 116.114 212.807 116.311 212.959 116.477C213.114 116.643 213.298 116.772 213.511 116.865ZM213.158 114.652H215.062V114.602C215.052 114.431 215.017 114.265 214.956 114.104C214.898 113.943 214.804 113.81 214.675 113.705C214.546 113.601 214.37 113.549 214.148 113.549C214 113.549 213.864 113.581 213.74 113.645C213.616 113.707 213.509 113.799 213.42 113.923C213.331 114.046 213.262 114.196 213.213 114.374C213.189 114.46 213.171 114.553 213.158 114.652ZM213.139 114.99V115.139C213.139 115.156 213.139 115.172 213.139 115.189H212.872V114.652H213.158C213.158 114.652 213.158 114.652 213.158 114.652C213.145 114.757 213.139 114.87 213.139 114.99Z" fill="black"/>
<path d="M212.872 114.652V115.189H213.139C213.139 115.172 213.139 115.156 213.139 115.139V114.99C213.139 114.87 213.145 114.757 213.158 114.652H212.872Z" fill="black"/>
<path d="M180.148 107.38H179.331C179.036 107.38 178.798 107.622 178.798 107.92V110.929C178.798 111.227 179.036 111.469 179.331 111.469H180.148C180.443 111.469 180.681 111.227 180.681 110.929V107.92C180.681 107.622 180.443 107.38 180.148 107.38Z" fill="#8DD69C"/>
<path d="M177.093 122.727V119.877H180.556L177.552 122.92C177.514 122.958 177.466 122.984 177.414 122.995C177.362 123.005 177.308 123 177.259 122.979C177.209 122.959 177.167 122.924 177.138 122.879C177.108 122.834 177.093 122.781 177.093 122.727Z" fill="#8DD69C"/>
<path d="M181.492 111.262L176.507 106.212C176.373 106.076 176.19 106 176 106C175.81 106 175.627 106.076 175.493 106.212L170.508 111.262C170.204 111.604 170.024 112.042 170 112.502V113.392C172.723 115.444 176.029 116.55 179.423 116.544C180.286 116.544 181.148 116.473 182 116.331V112.502C181.975 112.042 181.796 111.604 181.492 111.262Z" fill="#8DD69C"/>
<path d="M179.423 117.362C176.029 117.367 172.723 116.261 170 114.209V119.014C170.001 119.206 170.077 119.391 170.211 119.527C170.345 119.663 170.528 119.74 170.718 119.741H181.282C181.473 119.74 181.655 119.663 181.789 119.527C181.924 119.391 181.999 119.206 182 119.014V117.149C181.148 117.291 180.286 117.362 179.423 117.362Z" fill="#8DD69C"/>
<path d="M137.429 47.4287L96.5714 47.4287C93.4944 47.4287 91 49.9231 91 53.0001V79.0001C91 82.0771 93.4944 84.5715 96.5714 84.5715H137.429C140.506 84.5715 143 82.0771 143 79.0001V53.0001C143 49.9231 140.506 47.4287 137.429 47.4287ZM139.286 79.0001C139.286 80.0258 138.454 80.8572 137.428 80.8572H96.5714C95.5457 80.8572 94.7142 80.0258 94.7142 79.0001V77.9118L102.143 70.4832L108.258 76.5988C108.984 77.3238 110.159 77.3238 110.884 76.5988L126.286 61.1975L139.286 74.1975V79.0001H139.286ZM139.286 68.9455L127.599 57.2586C126.874 56.5335 125.698 56.5335 124.973 57.2586L109.571 72.6597L103.456 66.5441C102.731 65.8191 101.555 65.8191 100.83 66.5441L94.7142 72.6597V53.0001C94.7142 51.9744 95.5457 51.1429 96.5714 51.1429L137.429 51.1429C138.454 51.1429 139.286 51.9744 139.286 53.0001V68.9455H139.286Z" fill="black" fill-opacity="0.5"/>
<path d="M107.714 54.8572C104.637 54.8572 102.143 57.3516 102.143 60.4286C102.143 63.5056 104.637 66 107.714 66C110.791 66 113.286 63.5056 113.286 60.4286C113.286 57.3516 110.791 54.8572 107.714 54.8572ZM107.714 62.2858C106.689 62.2858 105.857 61.4543 105.857 60.4286C105.857 59.4029 106.689 58.5714 107.714 58.5714C108.74 58.5714 109.571 59.4029 109.571 60.4286C109.571 61.4543 108.74 62.2858 107.714 62.2858Z" fill="black" fill-opacity="0.5"/>
</svg>
