<svg width="31" height="30" viewBox="0 0 31 30" fill="none" xmlns="http://www.w3.org/2000/svg">
<path d="M15.0007 0C6.71689 0 0 6.71557 0 15C0 23.2844 6.71623 30 15.0007 30C23.2857 30 30.0013 23.2844 30.0013 15C30.0013 6.71557 23.2857 0 15.0007 0ZM15.0007 4.48517C17.7417 4.48517 19.9629 6.70701 19.9629 9.44674C19.9629 12.1871 17.7417 14.4083 15.0007 14.4083C12.2609 14.4083 10.0398 12.1871 10.0398 9.44674C10.0398 6.70701 12.2609 4.48517 15.0007 4.48517ZM14.9974 26.0782C12.2636 26.0782 9.75972 25.0826 7.82846 23.4347C7.35801 23.0334 7.08654 22.445 7.08654 21.8276C7.08654 19.049 9.33538 16.8252 12.1146 16.8252H17.888C20.6679 16.8252 22.9082 19.049 22.9082 21.8276C22.9082 22.4456 22.638 23.0327 22.1669 23.434C20.2363 25.0826 17.7318 26.0782 14.9974 26.0782Z" fill="black"/>
</svg>
