<svg width="15" height="15" viewBox="0 0 15 15" fill="none" xmlns="http://www.w3.org/2000/svg">
<path d="M9.94336 7.57688L15.0002 10.7738V4.245L9.94336 7.57688Z" fill="#434FAA"/>
<path d="M0 4.245V10.7738L5.05688 7.57688L0 4.245Z" fill="#434FAA"/>
<path d="M14.0627 2.34375H0.937695C0.469883 2.34375 0.0986328 2.6925 0.0283203 3.14156L7.5002 8.06437L14.9721 3.14156C14.9018 2.6925 14.5305 2.34375 14.0627 2.34375Z" fill="#434FAA"/>
<path d="M9.08465 8.14313L7.75809 9.01688C7.67934 9.06844 7.59027 9.09375 7.50027 9.09375C7.41027 9.09375 7.32121 9.06844 7.24246 9.01688L5.9159 8.14219L0.0302734 11.865C0.102461 12.3103 0.471836 12.6563 0.937773 12.6563H14.0628C14.5287 12.6563 14.8981 12.3103 14.9703 11.865L9.08465 8.14313Z" fill="#434FAA"/>
</svg>
