<svg width="19" height="19" viewBox="0 0 19 19" fill="none" xmlns="http://www.w3.org/2000/svg">
<g clip-path="url(#clip0_47_120)">
<path d="M17.9785 1.43062e-06H1.03951C0.740566 -0.000563689 0.466672 0.166334 0.330102 0.432128C0.191648 0.7015 0.215948 1.02588 0.39283 1.27189L6.59857 10.0141C6.60064 10.0171 6.60291 10.0199 6.60498 10.0229C6.83046 10.3273 6.95252 10.6962 6.95309 11.075V18.2024C6.95177 18.4134 7.03466 18.6163 7.18328 18.766C7.3321 18.9156 7.53441 19 7.74538 19C7.85257 18.9998 7.95881 18.9785 8.05789 18.9373L11.545 17.6077C11.8574 17.5122 12.0648 17.2174 12.0648 16.8625V11.075C12.0653 10.6962 12.1874 10.3273 12.4127 10.0229C12.4148 10.0199 12.417 10.0171 12.4191 10.0141L18.625 1.2717C18.8019 1.02588 18.8262 0.701689 18.6878 0.432316C18.5514 0.166334 18.2773 -0.000563689 17.9785 1.43062e-06Z" fill="black"/>
</g>
<defs>
<clipPath id="clip0_47_120">
<rect width="19" height="19" fill="white"/>
</clipPath>
</defs>
</svg>
