<svg width="25" height="25" viewBox="0 0 25 25" fill="none" xmlns="http://www.w3.org/2000/svg">
<path d="M5.85938 12.5C5.85938 11.2614 6.20063 10.1011 6.79351 9.10757V4.89331H2.57925C0.906641 7.06558 0 9.71299 0 12.5C0 15.287 0.906641 17.9344 2.57925 20.1067H6.79351V15.8924C6.20063 14.8989 5.85938 13.7386 5.85938 12.5Z" fill="#FBBD00"/>
<path d="M12.5 19.1406L9.57031 22.0703L12.5 25C15.2871 25 17.9344 24.0934 20.1067 22.4208V18.211H15.8969C14.8947 18.806 13.7295 19.1406 12.5 19.1406Z" fill="#0F9D58"/>
<path d="M6.79434 15.8924L2.58008 20.1067C2.91123 20.5368 3.27183 20.9486 3.66201 21.3389C6.02295 23.6998 9.16196 25 12.5008 25V19.1406C10.0778 19.1406 7.9541 17.8359 6.79434 15.8924Z" fill="#31AA52"/>
<path d="M25 12.5C25 11.7395 24.9312 10.9776 24.7953 10.2355L24.6854 9.63498H12.5V15.4944H18.4303C17.8544 16.6399 16.9689 17.5745 15.8969 18.2111L20.1066 22.4208C20.5367 22.0897 20.9486 21.7291 21.3388 21.3389C23.6998 18.9779 25 15.8389 25 12.5Z" fill="#3C79E6"/>
<path d="M17.1957 7.80435L17.7135 8.32222L21.8567 4.17905L21.3389 3.66118C18.9779 1.30024 15.8389 0 12.5 0L9.57031 2.92969L12.5 5.85938C14.2737 5.85938 15.9414 6.5501 17.1957 7.80435Z" fill="#CF2D48"/>
<path d="M12.5009 5.85938V0C9.16201 0 6.023 1.30024 3.66201 3.66113C3.27183 4.05132 2.91123 4.46318 2.58008 4.89331L6.79434 9.10757C7.95415 7.16406 10.0778 5.85938 12.5009 5.85938Z" fill="#EB4132"/>
</svg>
