<svg width="35" height="35" viewBox="0 0 35 35" fill="none" xmlns="http://www.w3.org/2000/svg">
<path d="M31.25 5.00012L3.75 5.00012C1.67893 5.00012 0 6.67905 0 8.75012L0 26.2501C0 28.3211 1.67893 30.0001 3.75 30.0001L31.25 30.0001C33.3211 30.0001 35 28.3211 35 26.2501V8.75012C35 6.67905 33.3211 5.00012 31.25 5.00012ZM32.5 26.2501C32.5 26.9405 31.9403 27.5001 31.2499 27.5001L3.75 27.5001C3.05962 27.5001 2.49997 26.9405 2.49997 26.2501V25.5176L7.49999 20.5176L11.6163 24.6338C12.1044 25.1219 12.8957 25.1219 13.3838 24.6338L23.75 14.2676L32.5 23.0176V26.2501H32.5ZM32.5 19.4826L24.6337 11.6164C24.1457 11.1284 23.3544 11.1284 22.8663 11.6164L12.5 21.9826L8.38373 17.8663C7.89565 17.3783 7.10434 17.3783 6.61625 17.8663L2.49997 21.9826L2.49997 8.75012C2.49997 8.05974 3.05962 7.5001 3.75 7.5001L31.25 7.5001C31.9404 7.5001 32.5 8.05974 32.5 8.75012V19.4826H32.5Z" fill="black" fill-opacity="0.5"/>
<path d="M11.25 10C9.17893 10 7.5 11.6789 7.5 13.75C7.5 15.8211 9.17893 17.5 11.25 17.5C13.3211 17.5 15 15.8211 15 13.75C15 11.6789 13.3211 10 11.25 10ZM11.25 15C10.5596 15 9.99998 14.4404 9.99998 13.75C9.99998 13.0596 10.5596 12.5 11.25 12.5C11.9404 12.5 12.5 13.0596 12.5 13.75C12.5 14.4404 11.9404 15 11.25 15Z" fill="black" fill-opacity="0.5"/>
</svg>
