<svg width="17" height="17" viewBox="0 0 17 17" fill="none" xmlns="http://www.w3.org/2000/svg">
<path d="M8.5 0C3.80166 0 0 3.80199 0 8.5C0 13.1983 3.80199 17 8.5 17C13.1983 17 17 13.198 17 8.5C17 3.80166 13.198 0 8.5 0ZM8.5 15.6719C4.53578 15.6719 1.32812 12.464 1.32812 8.5C1.32812 4.53578 4.53605 1.32812 8.5 1.32812C12.4642 1.32812 15.6719 4.53605 15.6719 8.5C15.6719 12.4642 12.4639 15.6719 8.5 15.6719Z" fill="black"/>
<path d="M8.5 7.11646C8.13324 7.11646 7.83594 7.41376 7.83594 7.78052V12.0569C7.83594 12.4236 8.13324 12.7209 8.5 12.7209C8.86676 12.7209 9.16406 12.4236 9.16406 12.0568V7.78052C9.16406 7.41376 8.86676 7.11646 8.5 7.11646Z" fill="black"/>
<path d="M8.5 6.30322C8.99511 6.30322 9.39648 5.90185 9.39648 5.40674C9.39648 4.91162 8.99511 4.51025 8.5 4.51025C8.00489 4.51025 7.60352 4.91162 7.60352 5.40674C7.60352 5.90185 8.00489 6.30322 8.5 6.30322Z" fill="black"/>
</svg>
