<svg width="17" height="17" viewBox="0 0 17 17" fill="none" xmlns="http://www.w3.org/2000/svg">
<g clip-path="url(#clip0_354_3559)">
<path d="M11.2717 9.05423H0.554348C0.248347 9.05423 0 8.80589 0 8.49989C0 8.1939 0.248347 7.94556 0.554348 7.94556H11.2717C11.5777 7.94556 11.826 8.1939 11.826 8.49989C11.826 8.80589 11.5777 9.05423 11.2717 9.05423Z" fill="black"/>
<path d="M8.3152 12.0108C8.17323 12.0108 8.03139 11.9569 7.92339 11.8483C7.70685 11.6317 7.70685 11.2807 7.92339 11.064L10.4882 8.4993L7.92339 5.93449C7.70685 5.71795 7.70685 5.36674 7.92339 5.1502C8.14007 4.93366 8.49114 4.93366 8.70768 5.1502L11.6641 8.10682C11.8807 8.32336 11.8807 8.67443 11.6641 8.89097L8.70768 11.8475C8.599 11.9569 8.45717 12.0108 8.3152 12.0108Z" fill="black"/>
<path d="M8.86957 16.6306C5.50571 16.6306 2.53597 14.6069 1.30235 11.4743C1.19002 11.1905 1.33036 10.8683 1.61498 10.7559C1.89879 10.6451 2.22184 10.7833 2.33417 11.0694C3.39929 13.7739 5.96478 15.5219 8.86957 15.5219C12.7411 15.5219 15.8914 12.3716 15.8914 8.50011C15.8914 4.62861 12.7411 1.47832 8.86957 1.47832C5.96478 1.47832 3.39929 3.22636 2.33417 5.93084C2.22103 6.21694 1.89879 6.35512 1.61498 6.24428C1.33036 6.13195 1.19002 5.80971 1.30235 5.5259C2.53597 2.39335 5.50571 0.369629 8.86957 0.369629C13.3524 0.369629 17.0001 4.01728 17.0001 8.50011C17.0001 12.9829 13.3524 16.6306 8.86957 16.6306Z" fill="black"/>
</g>
<defs>
<clipPath id="clip0_354_3559">
<rect width="17" height="17" fill="white"/>
</clipPath>
</defs>
</svg>
