<svg width="120" height="42" viewBox="0 0 120 42" fill="none" xmlns="http://www.w3.org/2000/svg">
<path d="M39.6699 27V19.3535H38.2549V17.4902H39.6699V16.6816C39.6699 15.6152 39.9746 14.7891 40.584 14.2031C41.1992 13.6113 42.0576 13.3154 43.1592 13.3154C43.5107 13.3154 43.9414 13.374 44.4512 13.4912L44.4248 15.46C44.2139 15.4072 43.9561 15.3809 43.6514 15.3809C42.6963 15.3809 42.2188 15.8291 42.2188 16.7256V17.4902H44.1084V19.3535H42.2188V27H39.6699ZM50.9375 27C50.8203 26.7715 50.7354 26.4873 50.6826 26.1475C50.0674 26.833 49.2676 27.1758 48.2832 27.1758C47.3516 27.1758 46.5781 26.9062 45.9629 26.3672C45.3535 25.8281 45.0488 25.1484 45.0488 24.3281C45.0488 23.3203 45.4209 22.5469 46.165 22.0078C46.915 21.4688 47.9961 21.1963 49.4082 21.1904H50.5771V20.6455C50.5771 20.2061 50.4629 19.8545 50.2344 19.5908C50.0117 19.3271 49.6572 19.1953 49.1709 19.1953C48.7432 19.1953 48.4062 19.2979 48.1602 19.5029C47.9199 19.708 47.7998 19.9893 47.7998 20.3467H45.2598C45.2598 19.7959 45.4297 19.2861 45.7695 18.8174C46.1094 18.3486 46.5898 17.9824 47.2109 17.7188C47.832 17.4492 48.5293 17.3145 49.3027 17.3145C50.4746 17.3145 51.4033 17.6104 52.0889 18.2021C52.7803 18.7881 53.126 19.6143 53.126 20.6807V24.8027C53.1318 25.7051 53.2578 26.3877 53.5039 26.8506V27H50.9375ZM48.8369 25.2334C49.2119 25.2334 49.5576 25.1514 49.874 24.9873C50.1904 24.8174 50.4248 24.5918 50.5771 24.3105V22.6758H49.6279C48.3564 22.6758 47.6797 23.1152 47.5977 23.9941L47.5889 24.1436C47.5889 24.46 47.7002 24.7207 47.9229 24.9258C48.1455 25.1309 48.4502 25.2334 48.8369 25.2334ZM60.2275 24.3721C60.2275 24.0615 60.0723 23.8184 59.7617 23.6426C59.457 23.4609 58.9648 23.2998 58.2852 23.1592C56.0234 22.6846 54.8926 21.7236 54.8926 20.2764C54.8926 19.4326 55.2412 18.7295 55.9385 18.167C56.6416 17.5986 57.5586 17.3145 58.6895 17.3145C59.8965 17.3145 60.8604 17.5986 61.5811 18.167C62.3076 18.7354 62.6709 19.4736 62.6709 20.3818H60.1309C60.1309 20.0186 60.0137 19.7197 59.7793 19.4854C59.5449 19.2451 59.1787 19.125 58.6807 19.125C58.2529 19.125 57.9219 19.2217 57.6875 19.415C57.4531 19.6084 57.3359 19.8545 57.3359 20.1533C57.3359 20.4346 57.4678 20.6631 57.7314 20.8389C58.001 21.0088 58.4521 21.1582 59.085 21.2871C59.7178 21.4102 60.251 21.5508 60.6846 21.709C62.0264 22.2012 62.6973 23.0537 62.6973 24.2666C62.6973 25.1338 62.3252 25.8369 61.5811 26.376C60.8369 26.9092 59.876 27.1758 58.6982 27.1758C57.9014 27.1758 57.1924 27.0352 56.5713 26.7539C55.9561 26.4668 55.4727 26.0771 55.1211 25.585C54.7695 25.0869 54.5938 24.5508 54.5938 23.9766H57.002C57.0254 24.4277 57.1924 24.7734 57.5029 25.0137C57.8135 25.2539 58.2295 25.374 58.751 25.374C59.2373 25.374 59.6035 25.2832 59.8496 25.1016C60.1016 24.9141 60.2275 24.6709 60.2275 24.3721ZM67.3818 15.1523V17.4902H69.0078V19.3535H67.3818V24.0996C67.3818 24.4512 67.4492 24.7031 67.584 24.8555C67.7188 25.0078 67.9766 25.084 68.3574 25.084C68.6387 25.084 68.8877 25.0635 69.1045 25.0225V26.9473C68.6064 27.0996 68.0938 27.1758 67.5664 27.1758C65.7852 27.1758 64.877 26.2764 64.8418 24.4775V19.3535H63.4531V17.4902H64.8418V15.1523H67.3818ZM72.3037 18.6416C73.0244 17.7568 73.9619 17.3145 75.1162 17.3145C77.126 17.3145 78.1396 18.4482 78.1572 20.7158V27H76.5312V20.707C76.5254 20.0215 76.3672 19.5146 76.0566 19.1865C75.752 18.8584 75.2744 18.6943 74.624 18.6943C74.0967 18.6943 73.6338 18.835 73.2354 19.1162C72.8369 19.3975 72.5264 19.7666 72.3037 20.2236V27H70.6777V13.5H72.3037V18.6416ZM80.1611 22.1572C80.1611 21.2256 80.3428 20.3877 80.7061 19.6436C81.0752 18.8994 81.585 18.3252 82.2354 17.9209C82.8916 17.5166 83.6387 17.3145 84.4766 17.3145C85.7715 17.3145 86.8174 17.7627 87.6143 18.6592C88.417 19.5557 88.8184 20.748 88.8184 22.2363V22.3506C88.8184 23.2764 88.6396 24.1084 88.2822 24.8467C87.9307 25.5791 87.4238 26.1504 86.7617 26.5605C86.1055 26.9707 85.3496 27.1758 84.4941 27.1758C83.2051 27.1758 82.1592 26.7275 81.3564 25.8311C80.5596 24.9346 80.1611 23.748 80.1611 22.2715V22.1572ZM81.7959 22.3506C81.7959 23.4053 82.0391 24.252 82.5254 24.8906C83.0176 25.5293 83.6738 25.8486 84.4941 25.8486C85.3203 25.8486 85.9766 25.5264 86.4629 24.8818C86.9492 24.2314 87.1924 23.3232 87.1924 22.1572C87.1924 21.1143 86.9434 20.2705 86.4453 19.626C85.9531 18.9756 85.2969 18.6504 84.4766 18.6504C83.6738 18.6504 83.0264 18.9697 82.5342 19.6084C82.042 20.2471 81.7959 21.1611 81.7959 22.3506ZM92.3867 17.4902L92.4307 18.5449C93.1279 17.7246 94.0684 17.3145 95.252 17.3145C96.582 17.3145 97.4873 17.8242 97.9678 18.8438C98.2842 18.3867 98.6943 18.0176 99.1982 17.7363C99.708 17.4551 100.309 17.3145 101 17.3145C103.086 17.3145 104.146 18.4189 104.182 20.6279V27H102.556V20.7246C102.556 20.0449 102.4 19.5381 102.09 19.2041C101.779 18.8643 101.258 18.6943 100.525 18.6943C99.9219 18.6943 99.4209 18.876 99.0225 19.2393C98.624 19.5967 98.3926 20.0801 98.3281 20.6895V27H96.6934V20.7686C96.6934 19.3857 96.0166 18.6943 94.6631 18.6943C93.5967 18.6943 92.8672 19.1484 92.4746 20.0566V27H90.8486V17.4902H92.3867ZM110.589 27.1758C109.3 27.1758 108.251 26.7539 107.442 25.9102C106.634 25.0605 106.229 23.9268 106.229 22.5088V22.21C106.229 21.2666 106.408 20.4258 106.766 19.6875C107.129 18.9434 107.633 18.3633 108.277 17.9473C108.928 17.5254 109.631 17.3145 110.387 17.3145C111.623 17.3145 112.584 17.7217 113.27 18.5361C113.955 19.3506 114.298 20.5166 114.298 22.0342V22.7109H107.855C107.879 23.6484 108.151 24.4072 108.673 24.9873C109.2 25.5615 109.868 25.8486 110.677 25.8486C111.251 25.8486 111.737 25.7314 112.136 25.4971C112.534 25.2627 112.883 24.9521 113.182 24.5654L114.175 25.3389C113.378 26.5635 112.183 27.1758 110.589 27.1758ZM110.387 18.6504C109.73 18.6504 109.18 18.8906 108.734 19.3711C108.289 19.8457 108.014 20.5137 107.908 21.375H112.672V21.252C112.625 20.4258 112.402 19.7871 112.004 19.3359C111.605 18.8789 111.066 18.6504 110.387 18.6504Z" fill="black"/>
<path d="M25.3703 3.40918H23.3274C22.5909 3.40918 21.994 4.00674 21.994 4.74386V12.1765C21.994 12.9136 22.5909 13.5112 23.3274 13.5112H25.3703C26.1068 13.5112 26.7037 12.9136 26.7037 12.1765V4.74386C26.7037 4.00674 26.1068 3.40918 25.3703 3.40918Z" fill="#8DD69C"/>
<path d="M17.7316 41.3259V34.2846H26.3911L18.8802 41.8028C18.7861 41.8971 18.6661 41.9612 18.5355 41.9871C18.405 42.013 18.2696 41.9998 18.1466 41.9487C18.0237 41.8977 17.9186 41.8112 17.8447 41.7003C17.7708 41.5896 17.7314 41.4592 17.7316 41.3259Z" fill="#8DD69C"/>
<path d="M28.7306 12.9991L16.2687 0.524119C15.9317 0.188442 15.4755 0 15.0001 0C14.5246 0 14.0685 0.188442 13.7315 0.524119L1.26975 12.9991C0.509299 13.8456 0.061218 14.9272 0 16.064V18.2614C6.8083 23.3316 15.0713 26.0635 23.5572 26.0499C25.7153 26.0502 27.8699 25.8747 29.9996 25.5249V16.064C29.9377 14.9275 29.4901 13.8462 28.7306 12.9991Z" fill="#8DD69C"/>
<path d="M23.5574 28.0703C15.0716 28.0837 6.80859 25.3518 0.000244141 20.2818V32.1517C0.00178412 32.6276 0.191296 33.0834 0.527413 33.4197C0.863527 33.7563 1.31895 33.9459 1.79429 33.9474H28.206C28.6812 33.9459 29.1366 33.7561 29.4728 33.4197C29.8089 33.0832 29.9983 32.6274 29.9999 32.1517V27.5453C27.8702 27.8951 25.7156 28.0707 23.5574 28.0703Z" fill="#8DD69C"/>
</svg>
