<svg width="17" height="17" viewBox="0 0 17 17" fill="none" xmlns="http://www.w3.org/2000/svg">
<g clip-path="url(#clip0_1137_4062)">
<path d="M0.554844 9.05435H11.2722C11.5782 9.05435 11.8265 8.80601 11.8265 8.50001C11.8265 8.19402 11.5782 7.94568 11.2722 7.94568H0.554844C0.248843 7.94568 0.000496519 8.19402 0.000496519 8.50001C0.000496519 8.80601 0.248843 9.05435 0.554844 9.05435Z" fill="black"/>
<path d="M3.51134 12.0109C3.65331 12.0109 3.79515 11.957 3.90315 11.8483C4.11969 11.6318 4.11969 11.2807 3.90315 11.064L1.33835 8.49936L3.90315 5.93455C4.11969 5.71801 4.11969 5.3668 3.90315 5.15026C3.68647 4.93372 3.3354 4.93372 3.11886 5.15026L0.162389 8.10688C-0.0541531 8.32342 -0.0541531 8.67449 0.162389 8.89104L3.11886 11.8475C3.22754 11.957 3.36937 12.0109 3.51134 12.0109V12.0109Z" fill="black"/>
<path d="M8.86961 15.5218C12.7411 15.5218 15.8914 12.3715 15.8914 8.49999C15.8914 4.62848 12.7411 1.4782 8.86961 1.4782C7.00387 1.4782 5.27811 2.19935 3.99998 3.43189C3.39998 3.6 2.99998 3.1 3.2306 2.63229C4.71047 1.20461 6.70872 0.369507 8.86961 0.369507C13.3524 0.369507 17.0001 4.01716 17.0001 8.49999C17.0001 12.9828 13.3524 16.6305 8.86961 16.6305C6.70872 16.6305 4.71051 15.7954 3.23064 14.3677C3.00002 13.9 3.40002 13.4 4.00002 13.5681C5.27815 14.8006 7.00387 15.5218 8.86961 15.5218Z" fill="black"/>
</g>
<defs>
<clipPath id="clip0_1137_4062">
<rect width="17" height="17" fill="white"/>
</clipPath>
</defs>
</svg>
