<svg width="103" height="135" viewBox="0 0 103 135" fill="none" xmlns="http://www.w3.org/2000/svg">
<path d="M2.22656 134V123.805H0.339844V121.32H2.22656V120.242C2.22656 118.82 2.63281 117.719 3.44531 116.938C4.26562 116.148 5.41016 115.754 6.87891 115.754C7.34766 115.754 7.92188 115.832 8.60156 115.988L8.56641 118.613C8.28516 118.543 7.94141 118.508 7.53516 118.508C6.26172 118.508 5.625 119.105 5.625 120.301V121.32H8.14453V123.805H5.625V134H2.22656ZM17.25 134C17.0938 133.695 16.9805 133.316 16.9102 132.863C16.0898 133.777 15.0234 134.234 13.7109 134.234C12.4688 134.234 11.4375 133.875 10.6172 133.156C9.80469 132.438 9.39844 131.531 9.39844 130.438C9.39844 129.094 9.89453 128.062 10.8867 127.344C11.8867 126.625 13.3281 126.262 15.2109 126.254H16.7695V125.527C16.7695 124.941 16.6172 124.473 16.3125 124.121C16.0156 123.77 15.543 123.594 14.8945 123.594C14.3242 123.594 13.875 123.73 13.5469 124.004C13.2266 124.277 13.0664 124.652 13.0664 125.129H9.67969C9.67969 124.395 9.90625 123.715 10.3594 123.09C10.8125 122.465 11.4531 121.977 12.2812 121.625C13.1094 121.266 14.0391 121.086 15.0703 121.086C16.6328 121.086 17.8711 121.48 18.7852 122.27C19.707 123.051 20.168 124.152 20.168 125.574V131.07C20.1758 132.273 20.3438 133.184 20.6719 133.801V134H17.25ZM14.4492 131.645C14.9492 131.645 15.4102 131.535 15.832 131.316C16.2539 131.09 16.5664 130.789 16.7695 130.414V128.234H15.5039C13.8086 128.234 12.9062 128.82 12.7969 129.992L12.7852 130.191C12.7852 130.613 12.9336 130.961 13.2305 131.234C13.5273 131.508 13.9336 131.645 14.4492 131.645ZM29.6367 130.496C29.6367 130.082 29.4297 129.758 29.0156 129.523C28.6094 129.281 27.9531 129.066 27.0469 128.879C24.0312 128.246 22.5234 126.965 22.5234 125.035C22.5234 123.91 22.9883 122.973 23.918 122.223C24.8555 121.465 26.0781 121.086 27.5859 121.086C29.1953 121.086 30.4805 121.465 31.4414 122.223C32.4102 122.98 32.8945 123.965 32.8945 125.176H29.5078C29.5078 124.691 29.3516 124.293 29.0391 123.98C28.7266 123.66 28.2383 123.5 27.5742 123.5C27.0039 123.5 26.5625 123.629 26.25 123.887C25.9375 124.145 25.7812 124.473 25.7812 124.871C25.7812 125.246 25.957 125.551 26.3086 125.785C26.668 126.012 27.2695 126.211 28.1133 126.383C28.957 126.547 29.668 126.734 30.2461 126.945C32.0352 127.602 32.9297 128.738 32.9297 130.355C32.9297 131.512 32.4336 132.449 31.4414 133.168C30.4492 133.879 29.168 134.234 27.5977 134.234C26.5352 134.234 25.5898 134.047 24.7617 133.672C23.9414 133.289 23.2969 132.77 22.8281 132.113C22.3594 131.449 22.125 130.734 22.125 129.969H25.3359C25.3672 130.57 25.5898 131.031 26.0039 131.352C26.418 131.672 26.9727 131.832 27.668 131.832C28.3164 131.832 28.8047 131.711 29.1328 131.469C29.4688 131.219 29.6367 130.895 29.6367 130.496ZM39.1758 118.203V121.32H41.3438V123.805H39.1758V130.133C39.1758 130.602 39.2656 130.938 39.4453 131.141C39.625 131.344 39.9688 131.445 40.4766 131.445C40.8516 131.445 41.1836 131.418 41.4727 131.363V133.93C40.8086 134.133 40.125 134.234 39.4219 134.234C37.0469 134.234 35.8359 133.035 35.7891 130.637V123.805H33.9375V121.32H35.7891V118.203H39.1758ZM45.7383 122.855C46.6992 121.676 47.9492 121.086 49.4883 121.086C52.168 121.086 53.5195 122.598 53.543 125.621V134H51.375V125.609C51.3672 124.695 51.1562 124.02 50.7422 123.582C50.3359 123.145 49.6992 122.926 48.832 122.926C48.1289 122.926 47.5117 123.113 46.9805 123.488C46.4492 123.863 46.0352 124.355 45.7383 124.965V134H43.5703V116H45.7383V122.855ZM56.2148 127.543C56.2148 126.301 56.457 125.184 56.9414 124.191C57.4336 123.199 58.1133 122.434 58.9805 121.895C59.8555 121.355 60.8516 121.086 61.9688 121.086C63.6953 121.086 65.0898 121.684 66.1523 122.879C67.2227 124.074 67.7578 125.664 67.7578 127.648V127.801C67.7578 129.035 67.5195 130.145 67.043 131.129C66.5742 132.105 65.8984 132.867 65.0156 133.414C64.1406 133.961 63.1328 134.234 61.9922 134.234C60.2734 134.234 58.8789 133.637 57.8086 132.441C56.7461 131.246 56.2148 129.664 56.2148 127.695V127.543ZM58.3945 127.801C58.3945 129.207 58.7188 130.336 59.3672 131.188C60.0234 132.039 60.8984 132.465 61.9922 132.465C63.0938 132.465 63.9688 132.035 64.6172 131.176C65.2656 130.309 65.5898 129.098 65.5898 127.543C65.5898 126.152 65.2578 125.027 64.5938 124.168C63.9375 123.301 63.0625 122.867 61.9688 122.867C60.8984 122.867 60.0352 123.293 59.3789 124.145C58.7227 124.996 58.3945 126.215 58.3945 127.801ZM72.5156 121.32L72.5742 122.727C73.5039 121.633 74.7578 121.086 76.3359 121.086C78.1094 121.086 79.3164 121.766 79.957 123.125C80.3789 122.516 80.9258 122.023 81.5977 121.648C82.2773 121.273 83.0781 121.086 84 121.086C86.7812 121.086 88.1953 122.559 88.2422 125.504V134H86.0742V125.633C86.0742 124.727 85.8672 124.051 85.4531 123.605C85.0391 123.152 84.3438 122.926 83.3672 122.926C82.5625 122.926 81.8945 123.168 81.3633 123.652C80.832 124.129 80.5234 124.773 80.4375 125.586V134H78.2578V125.691C78.2578 123.848 77.3555 122.926 75.5508 122.926C74.1289 122.926 73.1562 123.531 72.6328 124.742V134H70.4648V121.32H72.5156ZM96.7852 134.234C95.0664 134.234 93.668 133.672 92.5898 132.547C91.5117 131.414 90.9727 129.902 90.9727 128.012V127.613C90.9727 126.355 91.2109 125.234 91.6875 124.25C92.1719 123.258 92.8438 122.484 93.7031 121.93C94.5703 121.367 95.5078 121.086 96.5156 121.086C98.1641 121.086 99.4453 121.629 100.359 122.715C101.273 123.801 101.73 125.355 101.73 127.379V128.281H93.1406C93.1719 129.531 93.5352 130.543 94.2305 131.316C94.9336 132.082 95.8242 132.465 96.9023 132.465C97.668 132.465 98.3164 132.309 98.8477 131.996C99.3789 131.684 99.8438 131.27 100.242 130.754L101.566 131.785C100.504 133.418 98.9102 134.234 96.7852 134.234ZM96.5156 122.867C95.6406 122.867 94.9062 123.188 94.3125 123.828C93.7188 124.461 93.3516 125.352 93.2109 126.5H99.5625V126.336C99.5 125.234 99.2031 124.383 98.6719 123.781C98.1406 123.172 97.4219 122.867 96.5156 122.867Z" fill="black"/>
<path d="M79.6538 9.09113H74.2062C72.2422 9.09113 70.6504 10.6846 70.6504 12.6503V32.4707C70.6504 34.4363 72.2422 36.0298 74.2062 36.0298H79.6538C81.6178 36.0298 83.2096 34.4363 83.2096 32.4707V12.6503C83.2096 10.6846 81.6178 9.09113 79.6538 9.09113Z" fill="#8DD69C"/>
<path d="M59.2852 110.203V91.4257H82.3772L62.3482 111.474C62.0972 111.726 61.7773 111.897 61.4291 111.966C61.0809 112.035 60.72 112 60.392 111.863C60.0641 111.727 59.7838 111.497 59.5868 111.201C59.3898 110.906 59.2848 110.558 59.2852 110.203Z" fill="#8DD69C"/>
<path d="M88.6152 34.6643L55.3833 1.39765C54.4845 0.502514 53.2682 0 52.0004 0C50.7325 0 49.5162 0.502514 48.6175 1.39765L15.386 34.6643C13.3581 36.9218 12.1632 39.806 12 42.8375V48.6972C30.1555 62.2177 52.1903 69.5028 74.8194 69.4665C80.5744 69.4675 86.32 68.9993 91.9992 68.0665V42.8375C91.8341 39.8068 90.6405 36.9233 88.6152 34.6643Z" fill="#8DD69C"/>
<path d="M74.8194 74.8544C52.1903 74.8903 30.1556 67.6052 12 54.0851V85.7382C12.0041 87.0072 12.5095 88.2227 13.4058 89.1196C14.3021 90.0171 15.5166 90.5227 16.7841 90.5269H87.2156C88.4829 90.5227 89.6972 90.0166 90.5938 89.1196C91.4899 88.2222 91.995 87.0067 91.9992 85.7382V73.4545C86.32 74.3872 80.5744 74.8555 74.8194 74.8544Z" fill="#8DD69C"/>
</svg>
