<svg width="25" height="25" viewBox="0 0 25 25" fill="none" xmlns="http://www.w3.org/2000/svg">
<path d="M12.5003 0C7.50791 0 3.44629 4.06162 3.44629 9.054C3.44629 15.2497 11.5488 24.3454 11.8938 24.7295C12.2178 25.0904 12.7835 25.0898 13.1069 24.7295C13.4519 24.3454 21.5544 15.2497 21.5544 9.054C21.5543 4.06162 17.4927 0 12.5003 0ZM12.5003 13.6093C9.98853 13.6093 7.94507 11.5658 7.94507 9.054C7.94507 6.54219 9.98857 4.49873 12.5003 4.49873C15.0121 4.49873 17.0556 6.54224 17.0556 9.05405C17.0556 11.5659 15.0121 13.6093 12.5003 13.6093Z" fill="#FECD4C"/>
</svg>
