<svg width="25" height="25" viewBox="0 0 25 25" fill="none" xmlns="http://www.w3.org/2000/svg">
<path d="M24.0234 11.5234H13.4766V0.976562C13.4766 0.437207 13.0394 0 12.5 0C11.9606 0 11.5234 0.437207 11.5234 0.976562V11.5234H0.976562C0.437207 11.5234 0 11.9606 0 12.5C0 13.0394 0.437207 13.4766 0.976562 13.4766H11.5234V24.0234C11.5234 24.5628 11.9606 25 12.5 25C13.0394 25 13.4766 24.5628 13.4766 24.0234V13.4766H24.0234C24.5628 13.4766 25 13.0394 25 12.5C25 11.9606 24.5628 11.5234 24.0234 11.5234Z" fill="#E02828"/>
</svg>
