<svg width="40" height="40" viewBox="0 0 40 40" fill="none" xmlns="http://www.w3.org/2000/svg">
<circle cx="20" cy="20" r="20" fill="black" fill-opacity="0.3"/>
<g clip-path="url(#clip0_327_1776)">
<path d="M30.7119 18.984C30.5077 18.7047 25.6424 12.1445 19.4285 12.1445C13.2146 12.1445 8.34902 18.7047 8.14504 18.9838C7.95165 19.2488 7.95165 19.6082 8.14504 19.8732C8.34902 20.1525 13.2146 26.7128 19.4285 26.7128C25.6424 26.7128 30.5077 20.1525 30.7119 19.8734C30.9055 19.6085 30.9055 19.2488 30.7119 18.984ZM19.4285 25.2057C14.8513 25.2057 10.8869 20.8515 9.7134 19.4281C10.8854 18.0034 14.8414 13.6515 19.4285 13.6515C24.0054 13.6515 27.9695 18.0049 29.1435 19.4291C27.9715 20.8538 24.0155 25.2057 19.4285 25.2057Z" fill="white"/>
<path d="M19.4284 14.9073C16.9355 14.9073 14.9072 16.9356 14.9072 19.4285C14.9072 21.9215 16.9355 23.9497 19.4284 23.9497C21.9214 23.9497 23.9497 21.9215 23.9497 19.4285C23.9497 16.9356 21.9214 14.9073 19.4284 14.9073ZM19.4284 22.4426C17.7664 22.4426 16.4143 21.0905 16.4143 19.4285C16.4143 17.7665 17.7664 16.4144 19.4284 16.4144C21.0905 16.4144 22.4426 17.7665 22.4426 19.4285C22.4426 21.0905 21.0905 22.4426 19.4284 22.4426Z" fill="white"/>
</g>
<defs>
<clipPath id="clip0_327_1776">
<rect width="22.8571" height="22.8571" fill="white" transform="translate(8 8)"/>
</clipPath>
</defs>
</svg>
