<svg width="20" height="21" viewBox="0 0 20 21" fill="none" xmlns="http://www.w3.org/2000/svg">
<path d="M19.7556 19.1565L14.0682 13.469C15.1699 12.1082 15.8332 10.379 15.8332 8.49574C15.8332 4.13078 12.2815 0.579132 7.91656 0.579132C3.55161 0.579132 0 4.13074 0 8.4957C0 12.8607 3.55165 16.4123 7.9166 16.4123C9.7999 16.4123 11.5291 15.749 12.8899 14.6473L18.5773 20.3348C18.7398 20.4973 18.9531 20.5789 19.1665 20.5789C19.3798 20.5789 19.5932 20.4973 19.7557 20.3348C20.0815 20.0089 20.0815 19.4823 19.7556 19.1565ZM7.9166 14.7456C4.46996 14.7456 1.66666 11.9423 1.66666 8.4957C1.66666 5.04905 4.46996 2.24576 7.9166 2.24576C11.3632 2.24576 14.1665 5.04905 14.1665 8.4957C14.1665 11.9423 11.3632 14.7456 7.9166 14.7456Z" fill="black"/>
</svg>
