<svg width="60" height="60" viewBox="0 0 60 60" fill="none" xmlns="http://www.w3.org/2000/svg">
<circle cx="30" cy="30" r="30" fill="#FECD4C"/>
<g clip-path="url(#clip0_91_274)">
<path d="M30 23.75C29.3096 23.75 28.75 24.3096 28.75 25V28.75C28.75 29.4403 29.3096 29.9999 30 29.9999C30.6903 29.9999 31.25 29.4403 31.25 28.75V25C31.25 24.3097 30.6903 23.75 30 23.75Z" fill="white"/>
<path d="M30 20C29.31 20 28.75 20.56 28.75 21.25C28.75 21.94 29.31 22.5 30 22.5C30.69 22.5 31.25 21.94 31.25 21.25C31.25 20.56 30.69 20 30 20Z" fill="white"/>
<path d="M30 15C24.4771 15 20 19.4771 20 25C20 27.1194 20.9612 30.0073 22.6679 33.5545C23.2224 34.7067 23.8474 35.9088 24.5305 37.1469C25.5 38.9039 26.5371 40.6467 27.5742 42.2981C27.9373 42.8763 28.2747 43.402 28.5778 43.8656C28.7606 44.1452 28.8922 44.343 28.9638 44.4492C29.4577 45.1812 30.5342 45.1842 31.0323 44.455C31.1041 44.3498 31.2358 44.154 31.4188 43.8772C31.7221 43.4183 32.0596 42.8976 32.4229 42.3246C33.4606 40.6877 34.4983 38.957 35.4682 37.2077C36.1894 35.907 36.8458 34.6441 37.4224 33.4351C39.0725 29.9756 40 27.1297 40 25C40 19.4771 35.5229 15 30 15ZM35.1659 32.3589C34.6126 33.5188 33.9795 34.737 33.2818 35.9954C32.3377 37.6982 31.3246 39.3879 30.3114 40.986C30.2071 41.1504 30.1051 41.3105 30.0055 41.4657C29.9032 41.3049 29.7985 41.1391 29.6913 40.9685C28.6777 39.3546 27.6641 37.6513 26.7195 35.9391C26.0577 34.7396 25.4537 33.5782 24.9208 32.4705C23.3674 29.2421 22.5 26.6361 22.5 25C22.5 20.8579 25.8579 17.5 30 17.5C34.1422 17.5 37.5 20.8579 37.5 25C37.5 26.6551 36.6662 29.2136 35.1659 32.3589Z" fill="white"/>
</g>
<defs>
<clipPath id="clip0_91_274">
<rect width="30" height="30" fill="white" transform="translate(15 15)"/>
</clipPath>
</defs>
</svg>
