<svg width="17" height="17" viewBox="0 0 17 17" fill="none" xmlns="http://www.w3.org/2000/svg">
<path d="M16.5614 5.34992C15.9788 4.76734 15.0309 4.76737 14.4482 5.35005C14.2689 5.52945 13.1246 6.67472 12.9498 6.8497V2.90282C12.9498 2.50371 12.7943 2.12852 12.5121 1.84633L11.1035 0.437617C10.8213 0.155391 10.4461 0 10.0469 0H1.49469C0.670821 0 0.000549316 0.670272 0.000549316 1.49414V15.5059C0.000549316 16.3297 0.670821 17 1.49469 17H11.4556C12.2795 17 12.9498 16.3297 12.9498 15.5059V11.0776L16.5613 7.46297C17.1453 6.87906 17.1454 5.9339 16.5614 5.34992ZM9.96152 0.996094C10.0556 0.996094 10.2369 0.979791 10.3991 1.14196L11.8078 2.55066C11.9659 2.70874 11.9537 2.88196 11.9537 2.98828H9.96152V0.996094ZM11.9537 15.5059C11.9537 15.7805 11.7303 16.0039 11.4556 16.0039H1.49469C1.22007 16.0039 0.996643 15.7805 0.996643 15.5059V1.49414C0.996643 1.21952 1.22007 0.996094 1.49469 0.996094H8.96539V3.48633C8.96539 3.76138 9.18838 3.98438 9.46344 3.98438H11.9537V7.84666C11.9537 7.84666 10.4843 9.3173 10.4842 9.31733L9.78023 10.0214C9.72558 10.076 9.68434 10.1427 9.6599 10.216L8.95553 12.3291C8.89586 12.508 8.94245 12.7054 9.07586 12.8388C9.20943 12.9723 9.40683 13.0187 9.58553 12.9591L11.6986 12.2547C11.7719 12.2303 11.8386 12.1891 11.8932 12.1344L11.9537 12.074V15.5059ZM10.8367 10.3736L11.5411 11.0779L11.272 11.3469L10.2155 11.6991L10.5677 10.6426L10.8367 10.3736ZM12.2453 10.3734L11.5409 9.66905C11.916 9.29369 13.5818 7.62649 13.935 7.27291L14.6394 7.97725L12.2453 10.3734ZM15.8569 6.75876L15.3434 7.27261L14.6391 6.56828L15.1527 6.05426C15.347 5.86005 15.6629 5.86009 15.8571 6.05426C16.0512 6.2485 16.0522 6.56336 15.8569 6.75876Z" fill="black"/>
<path d="M9.4635 4.98047H2.49084C2.21579 4.98047 1.9928 5.20346 1.9928 5.47852C1.9928 5.75357 2.21579 5.97656 2.49084 5.97656H9.4635C9.73855 5.97656 9.96155 5.75357 9.96155 5.47852C9.96155 5.20346 9.73855 4.98047 9.4635 4.98047Z" fill="black"/>
<path d="M7.47131 6.97266H2.49084C2.21579 6.97266 1.9928 7.19565 1.9928 7.4707C1.9928 7.74576 2.21579 7.96875 2.49084 7.96875H7.47131C7.74637 7.96875 7.96936 7.74576 7.96936 7.4707C7.96936 7.19565 7.74637 6.97266 7.47131 6.97266Z" fill="black"/>
<path d="M7.47131 8.96484H2.49084C2.21579 8.96484 1.9928 9.18784 1.9928 9.46289C1.9928 9.73795 2.21579 9.96094 2.49084 9.96094H7.47131C7.74637 9.96094 7.96936 9.73795 7.96936 9.46289C7.96936 9.18784 7.74637 8.96484 7.47131 8.96484Z" fill="black"/>
<path d="M7.47131 10.957H2.49084C2.21579 10.957 1.9928 11.18 1.9928 11.4551C1.9928 11.7301 2.21579 11.9531 2.49084 11.9531H7.47131C7.74637 11.9531 7.96936 11.7301 7.96936 11.4551C7.96936 11.18 7.74637 10.957 7.47131 10.957Z" fill="black"/>
<path d="M9.4635 14.0117H6.47522C6.20016 14.0117 5.97717 14.2347 5.97717 14.5098C5.97717 14.7848 6.20016 15.0078 6.47522 15.0078H9.4635C9.73855 15.0078 9.96155 14.7848 9.96155 14.5098C9.96155 14.2347 9.73855 14.0117 9.4635 14.0117Z" fill="black"/>
</svg>
