<svg width="60" height="60" viewBox="0 0 60 60" fill="none" xmlns="http://www.w3.org/2000/svg">
<circle cx="30" cy="30" r="30" fill="#E75353"/>
<g clip-path="url(#clip0_91_273)">
<path d="M30 32.6953C28.5461 32.6953 27.3633 33.8781 27.3633 35.332C27.3633 35.8174 27.7568 36.2109 28.2422 36.2109C28.7276 36.2109 29.1211 35.8174 29.1211 35.332C29.1211 34.8474 29.5154 34.4531 30 34.4531C30.4846 34.4531 30.8789 34.8474 30.8789 35.332C30.8789 35.7025 30.6449 36.0352 30.2965 36.1599C29.5935 36.4117 29.1211 37.0826 29.1211 37.8292V37.9688C29.1211 38.4541 29.5146 38.8477 30 38.8477C30.4854 38.8477 30.8789 38.4541 30.8789 37.9688V37.8292C30.8789 37.823 30.8832 37.8169 30.8893 37.8148C31.9345 37.4404 32.6367 36.4426 32.6367 35.332C32.6367 33.8781 31.4539 32.6953 30 32.6953Z" fill="white"/>
<path d="M30 41.4844C30.4854 41.4844 30.8789 41.0909 30.8789 40.6055C30.8789 40.1201 30.4854 39.7266 30 39.7266C29.5146 39.7266 29.1211 40.1201 29.1211 40.6055C29.1211 41.0909 29.5146 41.4844 30 41.4844Z" fill="white"/>
<path d="M44.5876 23.9818C43.7749 23.4727 41.9525 22.3308 41.4257 22.0007V15.879C41.4257 15.3936 41.0322 15.0001 40.5468 15.0001H37.0312C36.5458 15.0001 36.1523 15.3936 36.1523 15.879V18.6967L30.4667 15.1342C30.1812 14.9554 29.8188 14.9554 29.5334 15.1342C28.9075 15.5251 15.972 23.6312 15.4124 23.9818C15.001 24.2395 14.8765 24.7819 15.1343 25.1932C15.3919 25.6045 15.9344 25.7291 16.3457 25.4714L16.8165 25.1764V40.6054C16.8165 41.0908 17.21 41.4843 17.6954 41.4843H23.4262C24.847 43.6027 27.2633 44.9999 30 44.9999C32.7367 44.9999 35.1531 43.6027 36.5738 41.4843H42.3046C42.79 41.4843 43.1835 41.0908 43.1835 40.6054V25.1764L43.6544 25.4714C44.0679 25.7305 44.6095 25.6023 44.8658 25.1932C45.1235 24.7819 44.999 24.2395 44.5876 23.9818ZM37.9101 16.7579H39.6679V20.8994L37.9101 19.798V16.7579ZM30 43.2421C26.6076 43.2421 23.8477 40.4822 23.8477 37.0898C23.8477 34.9207 24.9614 32.9562 26.8269 31.8346C28.1392 31.0455 29.2264 29.9466 30 28.6483C30.7736 29.9466 31.8608 31.0455 33.1731 31.8346C35.0386 32.9562 36.1523 34.9207 36.1523 37.0898C36.1523 40.4822 33.3924 43.2421 30 43.2421ZM41.4257 39.7265H37.4577C37.7503 38.9014 37.9101 38.014 37.9101 37.0898C37.9101 34.2426 36.3954 31.7208 34.0789 30.3281C31.5148 28.7864 30.8766 26.3436 30.8339 26.2653C30.7143 25.9063 30.3784 25.6641 30 25.6641C29.6216 25.6641 29.2857 25.9063 29.1662 26.2653C29.1461 26.3021 28.5072 28.7732 25.9211 30.3281C23.604 31.7213 22.0899 34.2435 22.0899 37.0898C22.0899 38.014 22.2498 38.9014 22.5424 39.7265H18.5743V24.075L30 16.9162L41.4257 24.075V39.7265Z" fill="white"/>
</g>
<defs>
<clipPath id="clip0_91_273">
<rect width="30" height="30" fill="white" transform="translate(15 15)"/>
</clipPath>
</defs>
</svg>
