<svg width="60" height="60" viewBox="0 0 60 60" fill="none" xmlns="http://www.w3.org/2000/svg">
<circle cx="30" cy="30" r="30" fill="#434FAA"/>
<g clip-path="url(#clip0_91_271)">
<path d="M42.3199 40.4289L38.7535 33.1311C38.7943 32.8779 38.8113 32.6233 38.8169 32.379C40.573 31.6003 41.1357 30.4586 40.4079 28.5645C41.7546 27.1443 41.7749 25.8184 40.4238 24.3878C41.1341 22.5278 40.5826 21.3211 38.8168 20.5345C38.7699 18.6279 37.9329 17.6686 35.8919 17.6205C35.1154 15.8563 33.9738 15.294 32.0895 16.022C30.7076 14.7034 29.3816 14.6214 27.9248 16.0062C26.0946 15.3033 24.877 15.8266 24.0837 17.6207C22.0724 17.6713 21.2257 18.6203 21.1813 20.5571C19.4253 21.3357 18.8625 22.4773 19.5903 24.3715C18.2436 25.7919 18.2232 27.1176 19.5744 28.5483C18.864 30.4083 19.4156 31.615 21.1814 32.4017C21.1872 32.6393 21.2041 32.8867 21.2437 33.133L17.6783 40.4289C17.3809 41.0373 17.8566 41.7388 18.5292 41.6914L22.3425 41.4252L24.4762 44.6104C24.8543 45.175 25.7011 45.114 25.9969 44.5055L29.2546 37.8044C29.7501 37.9765 30.2498 37.9761 30.7439 37.805L34.0013 44.5055C34.298 45.1158 35.1458 45.172 35.522 44.6103L37.6557 41.4251L41.469 41.6914C42.142 41.739 42.6171 41.037 42.3199 40.4289ZM25.085 42.3609L23.5196 40.024C23.3443 39.7624 23.0424 39.6143 22.7281 39.6363L19.9265 39.832L22.3371 34.8991C22.8774 35.223 23.5211 35.3018 24.1063 35.3156C24.8451 36.9943 25.9354 37.607 27.6948 36.9925L25.085 42.3609ZM28.7524 35.2674C28.4986 35.0019 28.1054 34.9215 27.7667 35.0688C27.3086 35.2678 26.6165 35.5686 26.3004 35.4373C25.9821 35.3049 25.7 34.588 25.5133 34.1136C25.3791 33.7725 25.0477 33.5526 24.6808 33.5566C24.1736 33.565 23.4072 33.5778 23.164 33.3336C22.9199 33.0887 22.932 32.3296 22.9401 31.8272C22.9459 31.4605 22.7235 31.1287 22.382 30.9949C20.8411 30.3912 20.7592 30.2041 21.4179 28.6936C21.5646 28.357 21.4867 27.9647 21.2225 27.7097C20.0387 26.5679 20.0431 26.3624 21.2375 25.2119C21.5012 24.9578 21.5798 24.5669 21.4347 24.2308C21.2358 23.7697 20.9351 23.0729 21.0675 22.752C21.1997 22.4317 21.9135 22.1487 22.3857 21.9614C22.7255 21.8266 22.9465 21.4956 22.9405 21.1301C22.9321 20.6195 22.9194 19.848 23.164 19.6025C23.4067 19.359 24.161 19.3712 24.6599 19.3792C25.0271 19.3829 25.36 19.1616 25.4932 18.8189C26.0943 17.2732 26.2772 17.1909 27.7784 17.8505C28.1166 17.9991 28.5115 17.9204 28.7669 17.6536C29.8984 16.4717 30.1034 16.4739 31.2459 17.6688C31.5003 17.935 31.8938 18.0142 32.2316 17.8674C32.6895 17.6683 33.3817 17.3673 33.6978 17.4988C34.0161 17.6313 34.2982 18.3482 34.485 18.8226C34.6158 19.155 34.9389 19.384 35.3174 19.3795C35.8245 19.371 36.5911 19.3585 36.8343 19.6026C37.0784 19.8476 37.0662 20.6067 37.0582 21.109C37.0523 21.4757 37.2748 21.8075 37.6163 21.9413C39.1571 22.545 39.2391 22.7321 38.5804 24.2426C38.4336 24.5793 38.5115 24.9715 38.7758 25.2265C39.9596 26.3684 39.9551 26.5738 38.7608 27.7243C38.4971 27.9783 38.4185 28.3692 38.5635 28.7054C38.7625 29.1664 39.0631 29.8633 38.9307 30.1842C38.7985 30.5045 38.0848 30.7876 37.6126 30.9748C37.2728 31.1096 37.0518 31.4407 37.0578 31.8061C37.0661 32.3167 37.0788 33.0881 36.8342 33.3337C36.5915 33.5773 35.8374 33.5652 35.3383 33.557C34.9719 33.5534 34.6382 33.7747 34.505 34.1173C33.904 35.6628 33.7211 35.7452 32.2199 35.0857C31.8817 34.937 31.4868 35.0158 31.2313 35.2826C30.0998 36.4645 29.8948 36.4622 28.7524 35.2674ZM37.2701 39.6363C36.9555 39.6145 36.6539 39.7623 36.4786 40.024L34.9132 42.3609L32.3155 37.0173C34.0349 37.599 35.1739 36.9902 35.9145 35.3154C36.4916 35.3009 37.1259 35.2212 37.6612 34.8994L40.0717 39.8319L37.2701 39.6363Z" fill="white"/>
<path d="M33.5231 30.4306L33.1198 27.9168L34.9175 26.1216C35.4246 25.6153 35.1428 24.7427 34.4322 24.6315L31.9293 24.2403L30.7845 21.9707C30.4599 21.3271 29.539 21.3282 29.215 21.9707L28.0703 24.2403L25.5674 24.6315C24.8566 24.7427 24.5753 25.6155 25.0821 26.1216L26.8799 27.9168L26.4766 30.4306C26.3626 31.1414 27.1074 31.6801 27.7467 31.3512L29.9998 30.1914L32.2529 31.3512C32.8929 31.6806 33.6369 31.1405 33.5231 30.4306ZM31.5121 28.993C29.775 28.0988 30.2254 28.0983 28.4875 28.993C28.7982 27.0561 28.9383 27.4882 27.5488 26.1008C29.4836 25.7984 29.1193 26.0637 29.9998 24.3181C30.8798 26.063 30.5125 25.7979 32.4507 26.1008C31.0614 27.4881 31.2013 27.0557 31.5121 28.993Z" fill="white"/>
</g>
<defs>
<clipPath id="clip0_91_271">
<rect width="30" height="30" fill="white" transform="translate(15 15)"/>
</clipPath>
</defs>
</svg>
