<svg width="60" height="60" viewBox="0 0 60 60" fill="none" xmlns="http://www.w3.org/2000/svg">
<circle cx="30" cy="30" r="30" fill="#9FCBFF"/>
<path d="M20.4877 28.8781C20.3535 28.7439 20.1521 28.7032 19.9768 28.7764C19.8015 28.8488 19.6875 29.02 19.6875 29.2095V39.8438C19.6875 40.1029 19.8972 40.3126 20.1562 40.3126H30.7905C30.9801 40.3126 31.1513 40.1986 31.2236 40.0233C31.2964 39.8479 31.2561 39.6465 31.122 39.5124L20.4877 28.8781ZM20.625 30.3411L23.4375 33.1536V39.3751H20.625V30.3411ZM24.375 39.3751V34.0911L29.659 39.3751H24.375Z" fill="white"/>
<path d="M40.6439 16.0748C40.556 15.9869 40.437 15.9375 40.3125 15.9375H23.9062C23.6472 15.9375 23.4375 16.1472 23.4375 16.4062V26.5247L16.7377 19.8248C16.6035 19.6907 16.4021 19.6504 16.2268 19.7232C16.0515 19.7955 15.9375 19.9667 15.9375 20.1562V43.5938C15.9375 43.8528 16.1472 44.0625 16.4062 44.0625H39.8438C40.0333 44.0625 40.2045 43.9485 40.2768 43.7732C40.3496 43.5979 40.3093 43.3965 40.1752 43.2623L37.2253 40.3125H38.9062H43.5938C43.8528 40.3125 44.0625 40.1028 44.0625 39.8438V23.4375V19.6875C44.0625 19.563 44.0131 19.444 43.9252 19.3561L40.6439 16.0748ZM16.875 43.125V21.2878L19.0247 23.4375L18.4186 24.0436L19.0814 24.7064L19.6875 24.1003L20.4309 24.8438L19.8248 25.4498L20.4877 26.1127L21.0938 25.5066L21.8372 26.25L21.2311 26.8561L21.8939 27.5189L22.5 26.9128L23.2434 27.6562L22.6373 28.2623L23.3002 28.9252L23.9062 28.3191L24.6497 29.0625L24.0436 29.6686L24.7064 30.3314L25.3125 29.7253L26.0559 30.4688L25.4498 31.0748L26.1127 31.7377L26.7188 31.1316L27.4622 31.875L26.8561 32.4811L27.5189 33.1439L28.125 32.5378L28.8684 33.2812L28.2623 33.8873L28.9252 34.5502L29.5312 33.9441L30.2747 34.6875L29.6686 35.2936L30.3314 35.9564L30.9375 35.3503L31.6809 36.0938L31.0748 36.6998L31.7377 37.3627L32.3438 36.7566L33.0872 37.5L32.4811 38.1061L33.1439 38.7689L33.75 38.1628L34.4934 38.9062L33.8873 39.5123L34.5502 40.1752L35.1562 39.5691L35.8997 40.3125L35.2936 40.9186L35.9564 41.5814L36.5625 40.9753L38.7122 43.125H16.875ZM26.7188 22.0312H28.5938V31.6809L26.7188 29.8059V22.0312ZM27.0085 21.0938L27.6562 19.7983L28.304 21.0938H27.0085ZM32.8203 30.5219L33.6191 28.125H34.8184L35.6172 30.5219L34.8725 37.9597L33.4171 36.5042L32.8203 30.5219ZM34.6875 25.3125V23.197L36.0127 25.3175L34.8908 27.1875H33.5467L32.4248 25.3175L33.75 23.197V25.3125H34.6875ZM35.7291 38.8162L36.5602 30.5154C36.5666 30.4495 36.5593 30.3831 36.5382 30.3204L35.669 27.7128L36.9644 25.5537C37.055 25.4027 37.0532 25.2136 36.9598 25.0639L34.6161 21.3139C34.4449 21.0402 33.9926 21.0402 33.8214 21.3139L31.4777 25.0639C31.3843 25.2136 31.3824 25.4027 31.4731 25.5537L32.7685 27.7128L31.8993 30.3204C31.8782 30.3831 31.8709 30.4495 31.8773 30.5154L32.3704 35.4576L29.5312 32.6184V21.5625C29.5312 21.4897 29.5143 21.4178 29.4818 21.3528L28.0756 18.5403C27.9163 18.2227 27.3962 18.2227 27.2369 18.5403L25.8307 21.3528C25.7982 21.4178 25.7812 21.4897 25.7812 21.5625V28.8684L24.375 27.4622V16.875H40.1184L42.4622 19.2188H40.7812V18.2812H39.8438V19.6875C39.8438 19.9466 40.0534 20.1562 40.3125 20.1562H43.125V22.9688H38.9062C38.6472 22.9688 38.4375 23.1784 38.4375 23.4375V39.375H36.2878L35.7291 38.8162ZM39.375 39.375V23.9062H43.125V25.3125H42.1875V26.25H43.125V27.6562H42.1875V28.5938H43.125V30H42.1875V30.9375H43.125V32.3438H42.1875V33.2812H43.125V34.6875H42.1875V35.625H43.125V37.0312H42.1875V37.9688H43.125V39.375H39.375Z" fill="white"/>
<path d="M17.8125 41.25H18.75V42.1875H17.8125V41.25Z" fill="white"/>
<path d="M19.6875 41.25H20.625V42.1875H19.6875V41.25Z" fill="white"/>
<path d="M21.5625 41.25H22.5V42.1875H21.5625V41.25Z" fill="white"/>
</svg>
