<svg width="15" height="15" viewBox="0 0 15 15" fill="none" xmlns="http://www.w3.org/2000/svg">
<path d="M11.9927 2.12696H3.00712C2.57476 2.12696 2.22303 2.47847 2.22303 2.91058V12.0895C2.22303 12.5218 2.57455 12.8735 3.00712 12.8735H11.9927C12.4249 12.8735 12.7766 12.522 12.7766 12.0895V2.91058C12.7764 2.47847 12.4249 2.12696 11.9927 2.12696ZM9.28364 9.36396H7.77209V5.94526L6.45737 8.0312L5.14787 5.94526V9.36418H3.64074V3.29503H5.14787L6.45737 5.38098L7.77209 3.29503H9.28364V9.36396ZM13.4629 0H1.53676C0.758887 0 0.128052 0.630799 0.128052 1.40856V13.5911C0.128052 14.3692 0.758887 15 1.53676 15H13.4631C14.241 15 14.8718 14.3692 14.8718 13.5911V1.40856C14.8718 0.630799 14.241 0 13.4629 0ZM13.332 12.0895C13.332 12.8278 12.7312 13.4288 11.9927 13.4288H3.00712C2.26872 13.4288 1.66772 12.828 1.66772 12.0895V2.91058C1.66772 2.17243 2.26851 1.57139 3.00712 1.57139H11.9927C12.731 1.57139 13.332 2.17218 13.332 2.91058V12.0895Z" fill="black"/>
</svg>
