<svg width="15" height="15" viewBox="0 0 15 15" fill="none" xmlns="http://www.w3.org/2000/svg">
<path d="M14.2378 2.95724H11.4977C11.0766 2.95724 10.7354 3.29819 10.7354 3.71933V5.69764H8.75717C8.33603 5.69764 7.99484 6.03846 7.99484 6.45963V8.43806H6.01653C5.59539 8.43806 5.25432 8.77938 5.25432 9.20009V11.2738H3.18106C2.97876 11.2738 2.7849 11.354 2.64203 11.4968C2.49903 11.6396 2.41882 11.8343 2.41882 12.0358L2.41907 13.6303C2.41907 14.0518 2.76038 14.3927 3.18128 14.3927H14.2378C14.659 14.3927 15 14.0518 15 13.6303V3.7193C15.0001 3.29819 14.659 2.95724 14.2378 2.95724Z" fill="black"/>
<path d="M10.2266 0.760775C10.0304 0.559679 9.70912 0.555815 9.50814 0.751469C6.24859 3.9267 3.14766 7.02801 0.148905 10.0265C0.0534895 10.1219 0 10.2515 0 10.386V13.8635C0 14.1437 0.227408 14.3717 0.508119 14.3717C0.788553 14.3717 1.01636 14.1438 1.01636 13.8635V10.5963C3.96645 7.64611 7.01643 4.5977 10.2171 1.47927C10.418 1.28364 10.4221 0.961747 10.2266 0.760775Z" fill="black"/>
</svg>
