<?xml version="1.0" standalone="no"?>
<!DOCTYPE svg PUBLIC "-//W3C//DTD SVG 20010904//EN"
 "http://www.w3.org/TR/2001/REC-SVG-20010904/DTD/svg10.dtd">
<svg version="1.0" xmlns="http://www.w3.org/2000/svg"
 width="114.000000pt" height="114.000000pt" viewBox="0 0 114.000000 114.000000"
 preserveAspectRatio="xMidYMid meet">
<metadata>
Created by potrace 1.14, written by Peter Selinger 2001-2017
</metadata>
<g transform="translate(0.000000,114.000000) scale(0.100000,-0.100000)"
fill="#000000" stroke="none">
<path d="M368 963 c-99 -98 -185 -191 -193 -207 -8 -16 -15 -48 -15 -72 0 -42
1 -43 73 -88 127 -79 252 -125 406 -150 85 -13 252 -15 306 -2 l30 6 -1 138
c-1 75 -2 143 -3 150 -1 7 -20 33 -43 58 l-42 46 -1 88 c-1 102 -10 120 -65
120 -43 0 -62 -18 -62 -56 0 -23 -9 -17 -87 60 -48 48 -95 86 -106 86 -11 0
-91 -71 -197 -177z"/>
<path d="M160 420 c0 -140 3 -171 16 -184 8 -9 21 -16 27 -16 7 -1 176 -1 377
0 289 0 368 3 378 14 11 11 19 91 13 141 -1 6 -58 9 -153 8 -157 -1 -244 11
-363 52 -71 24 -181 78 -242 119 l-53 35 0 -169z"/>
<path d="M641 117 c0 -51 4 -99 9 -107 8 -12 32 8 117 93 l108 107 -117 0
-117 0 0 -93z"/>
</g>
</svg>
